<mxfile host="65bd71144e">
    <diagram id="Wl5fWzNREAtwvTSXh8ia" name="PÃ¡gina-1">
        <mxGraphModel dx="1273" dy="886" grid="1" gridSize="10" guides="1" tooltips="1" connect="1" arrows="1" fold="1" page="1" pageScale="1" pageWidth="827" pageHeight="1169" math="0" shadow="0">
            <root>
                <mxCell id="0"/>
                <mxCell id="1" parent="0"/>
                <mxCell id="16" value="" style="group" parent="1" connectable="0" vertex="1">
                    <mxGeometry x="260" y="250" width="160" height="150" as="geometry"/>
                </mxCell>
                <mxCell id="17" value="" style="ellipse;whiteSpace=wrap;html=1;aspect=fixed;" parent="16" vertex="1">
                    <mxGeometry x="10" width="150" height="150" as="geometry"/>
                </mxCell>
                <mxCell id="18" value="" style="endArrow=none;html=1;entryX=0.267;entryY=0.953;entryDx=0;entryDy=0;entryPerimeter=0;exitX=0.267;exitY=0.033;exitDx=0;exitDy=0;exitPerimeter=0;" parent="16" source="17" target="17" edge="1">
                    <mxGeometry width="50" height="50" relative="1" as="geometry">
                        <mxPoint x="50" y="10" as="sourcePoint"/>
                        <mxPoint x="50" y="150" as="targetPoint"/>
                    </mxGeometry>
                </mxCell>
                <mxCell id="19" value="" style="endArrow=none;html=1;entryX=0.673;entryY=0.033;entryDx=0;entryDy=0;entryPerimeter=0;exitX=0.68;exitY=0.973;exitDx=0;exitDy=0;exitPerimeter=0;" parent="16" source="17" target="17" edge="1">
                    <mxGeometry width="50" height="50" relative="1" as="geometry">
                        <mxPoint x="90" y="110" as="sourcePoint"/>
                        <mxPoint x="140" y="60" as="targetPoint"/>
                    </mxGeometry>
                </mxCell>
                <mxCell id="20" value="" style="endArrow=none;html=1;exitX=0;exitY=0.5;exitDx=0;exitDy=0;" parent="16" source="17" edge="1">
                    <mxGeometry width="50" height="50" relative="1" as="geometry">
                        <mxPoint x="60" y="100" as="sourcePoint"/>
                        <mxPoint x="50" y="75" as="targetPoint"/>
                    </mxGeometry>
                </mxCell>
                <mxCell id="21" value="" style="endArrow=none;html=1;exitX=1;exitY=0.5;exitDx=0;exitDy=0;" parent="16" source="17" edge="1">
                    <mxGeometry width="50" height="50" relative="1" as="geometry">
                        <mxPoint x="170" y="260" as="sourcePoint"/>
                        <mxPoint x="110" y="75" as="targetPoint"/>
                    </mxGeometry>
                </mxCell>
                <mxCell id="22" value="Entrevistas" style="text;html=1;strokeColor=none;fillColor=none;align=center;verticalAlign=middle;whiteSpace=wrap;rounded=0;" parent="16" vertex="1">
                    <mxGeometry x="50" y="10" width="60" height="30" as="geometry"/>
                </mxCell>
                <mxCell id="23" value="3" style="text;html=1;strokeColor=none;fillColor=none;align=center;verticalAlign=middle;whiteSpace=wrap;rounded=0;" parent="16" vertex="1">
                    <mxGeometry x="50" y="100" width="60" height="30" as="geometry"/>
                </mxCell>
                <mxCell id="24" value="0" style="text;html=1;strokeColor=none;fillColor=none;align=center;verticalAlign=middle;whiteSpace=wrap;rounded=0;" parent="16" vertex="1">
                    <mxGeometry y="40" width="60" height="30" as="geometry"/>
                </mxCell>
                <mxCell id="25" value="0" style="text;html=1;strokeColor=none;fillColor=none;align=center;verticalAlign=middle;whiteSpace=wrap;rounded=0;" parent="16" vertex="1">
                    <mxGeometry y="90" width="60" height="30" as="geometry"/>
                </mxCell>
                <mxCell id="26" value="3" style="text;html=1;strokeColor=none;fillColor=none;align=center;verticalAlign=middle;whiteSpace=wrap;rounded=0;" parent="16" vertex="1">
                    <mxGeometry x="100" y="40" width="60" height="30" as="geometry"/>
                </mxCell>
                <mxCell id="27" value="2" style="text;html=1;strokeColor=none;fillColor=none;align=center;verticalAlign=middle;whiteSpace=wrap;rounded=0;" parent="16" vertex="1">
                    <mxGeometry x="100" y="90" width="60" height="30" as="geometry"/>
                </mxCell>
                <mxCell id="28" value="" style="group" parent="1" connectable="0" vertex="1">
                    <mxGeometry x="50" y="510" width="160" height="150" as="geometry"/>
                </mxCell>
                <mxCell id="29" value="" style="ellipse;whiteSpace=wrap;html=1;aspect=fixed;" parent="28" vertex="1">
                    <mxGeometry x="10" width="150" height="150" as="geometry"/>
                </mxCell>
                <mxCell id="30" value="" style="endArrow=none;html=1;entryX=0.267;entryY=0.953;entryDx=0;entryDy=0;entryPerimeter=0;exitX=0.267;exitY=0.033;exitDx=0;exitDy=0;exitPerimeter=0;" parent="28" source="29" target="29" edge="1">
                    <mxGeometry width="50" height="50" relative="1" as="geometry">
                        <mxPoint x="50" y="10" as="sourcePoint"/>
                        <mxPoint x="50" y="150" as="targetPoint"/>
                    </mxGeometry>
                </mxCell>
                <mxCell id="31" value="" style="endArrow=none;html=1;entryX=0.673;entryY=0.033;entryDx=0;entryDy=0;entryPerimeter=0;exitX=0.68;exitY=0.973;exitDx=0;exitDy=0;exitPerimeter=0;" parent="28" source="29" target="29" edge="1">
                    <mxGeometry width="50" height="50" relative="1" as="geometry">
                        <mxPoint x="90" y="110" as="sourcePoint"/>
                        <mxPoint x="140" y="60" as="targetPoint"/>
                    </mxGeometry>
                </mxCell>
                <mxCell id="32" value="" style="endArrow=none;html=1;exitX=0;exitY=0.5;exitDx=0;exitDy=0;" parent="28" source="29" edge="1">
                    <mxGeometry width="50" height="50" relative="1" as="geometry">
                        <mxPoint x="60" y="100" as="sourcePoint"/>
                        <mxPoint x="50" y="75" as="targetPoint"/>
                    </mxGeometry>
                </mxCell>
                <mxCell id="33" value="" style="endArrow=none;html=1;exitX=1;exitY=0.5;exitDx=0;exitDy=0;" parent="28" source="29" edge="1">
                    <mxGeometry width="50" height="50" relative="1" as="geometry">
                        <mxPoint x="170" y="260" as="sourcePoint"/>
                        <mxPoint x="110" y="75" as="targetPoint"/>
                    </mxGeometry>
                </mxCell>
                <mxCell id="34" value="Start" style="text;html=1;strokeColor=none;fillColor=none;align=center;verticalAlign=middle;whiteSpace=wrap;rounded=0;" parent="28" vertex="1">
                    <mxGeometry x="50" y="10" width="60" height="30" as="geometry"/>
                </mxCell>
                <mxCell id="35" value="0" style="text;html=1;strokeColor=none;fillColor=none;align=center;verticalAlign=middle;whiteSpace=wrap;rounded=0;" parent="28" vertex="1">
                    <mxGeometry x="50" y="100" width="60" height="30" as="geometry"/>
                </mxCell>
                <mxCell id="36" value="0" style="text;html=1;strokeColor=none;fillColor=none;align=center;verticalAlign=middle;whiteSpace=wrap;rounded=0;" parent="28" vertex="1">
                    <mxGeometry y="40" width="60" height="30" as="geometry"/>
                </mxCell>
                <mxCell id="38" value="0" style="text;html=1;strokeColor=none;fillColor=none;align=center;verticalAlign=middle;whiteSpace=wrap;rounded=0;" parent="28" vertex="1">
                    <mxGeometry x="100" y="40" width="60" height="30" as="geometry"/>
                </mxCell>
                <mxCell id="424" value="0" style="text;html=1;strokeColor=none;fillColor=none;align=center;verticalAlign=middle;whiteSpace=wrap;rounded=0;" parent="28" vertex="1">
                    <mxGeometry x="100" y="80" width="60" height="30" as="geometry"/>
                </mxCell>
                <mxCell id="425" value="0" style="text;html=1;strokeColor=none;fillColor=none;align=center;verticalAlign=middle;whiteSpace=wrap;rounded=0;" parent="28" vertex="1">
                    <mxGeometry y="80" width="60" height="30" as="geometry"/>
                </mxCell>
                <mxCell id="40" value="" style="group" parent="1" vertex="1" connectable="0">
                    <mxGeometry x="260" y="510" width="160" height="150" as="geometry"/>
                </mxCell>
                <mxCell id="41" value="" style="ellipse;whiteSpace=wrap;html=1;aspect=fixed;" parent="40" vertex="1">
                    <mxGeometry x="10" width="150" height="150" as="geometry"/>
                </mxCell>
                <mxCell id="42" value="" style="endArrow=none;html=1;entryX=0.267;entryY=0.953;entryDx=0;entryDy=0;entryPerimeter=0;exitX=0.267;exitY=0.033;exitDx=0;exitDy=0;exitPerimeter=0;" parent="40" source="41" target="41" edge="1">
                    <mxGeometry width="50" height="50" relative="1" as="geometry">
                        <mxPoint x="50" y="10" as="sourcePoint"/>
                        <mxPoint x="50" y="150" as="targetPoint"/>
                    </mxGeometry>
                </mxCell>
                <mxCell id="43" value="" style="endArrow=none;html=1;entryX=0.673;entryY=0.033;entryDx=0;entryDy=0;entryPerimeter=0;exitX=0.68;exitY=0.973;exitDx=0;exitDy=0;exitPerimeter=0;" parent="40" source="41" target="41" edge="1">
                    <mxGeometry width="50" height="50" relative="1" as="geometry">
                        <mxPoint x="90" y="110" as="sourcePoint"/>
                        <mxPoint x="140" y="60" as="targetPoint"/>
                    </mxGeometry>
                </mxCell>
                <mxCell id="44" value="" style="endArrow=none;html=1;exitX=0;exitY=0.5;exitDx=0;exitDy=0;" parent="40" source="41" edge="1">
                    <mxGeometry width="50" height="50" relative="1" as="geometry">
                        <mxPoint x="60" y="100" as="sourcePoint"/>
                        <mxPoint x="50" y="75" as="targetPoint"/>
                    </mxGeometry>
                </mxCell>
                <mxCell id="45" value="" style="endArrow=none;html=1;exitX=1;exitY=0.5;exitDx=0;exitDy=0;" parent="40" source="41" edge="1">
                    <mxGeometry width="50" height="50" relative="1" as="geometry">
                        <mxPoint x="170" y="260" as="sourcePoint"/>
                        <mxPoint x="110" y="75" as="targetPoint"/>
                    </mxGeometry>
                </mxCell>
                <mxCell id="46" value="&lt;font style=&quot;font-size: 10px;&quot;&gt;InvestigaciÃ³n&lt;br&gt;empresa&lt;/font&gt;" style="text;html=1;strokeColor=none;fillColor=none;align=center;verticalAlign=middle;whiteSpace=wrap;rounded=0;" parent="40" vertex="1">
                    <mxGeometry x="50" y="10" width="60" height="30" as="geometry"/>
                </mxCell>
                <mxCell id="47" value="2" style="text;html=1;strokeColor=none;fillColor=none;align=center;verticalAlign=middle;whiteSpace=wrap;rounded=0;" parent="40" vertex="1">
                    <mxGeometry x="50" y="100" width="60" height="30" as="geometry"/>
                </mxCell>
                <mxCell id="48" value="0" style="text;html=1;strokeColor=none;fillColor=none;align=center;verticalAlign=middle;whiteSpace=wrap;rounded=0;" parent="40" vertex="1">
                    <mxGeometry y="40" width="60" height="30" as="geometry"/>
                </mxCell>
                <mxCell id="49" value="0" style="text;html=1;strokeColor=none;fillColor=none;align=center;verticalAlign=middle;whiteSpace=wrap;rounded=0;" parent="40" vertex="1">
                    <mxGeometry y="90" width="60" height="30" as="geometry"/>
                </mxCell>
                <mxCell id="50" value="2" style="text;html=1;strokeColor=none;fillColor=none;align=center;verticalAlign=middle;whiteSpace=wrap;rounded=0;" parent="40" vertex="1">
                    <mxGeometry x="100" y="40" width="60" height="30" as="geometry"/>
                </mxCell>
                <mxCell id="51" value="2" style="text;html=1;strokeColor=none;fillColor=none;align=center;verticalAlign=middle;whiteSpace=wrap;rounded=0;" parent="40" vertex="1">
                    <mxGeometry x="100" y="90" width="60" height="30" as="geometry"/>
                </mxCell>
                <mxCell id="52" value="" style="group" parent="1" connectable="0" vertex="1">
                    <mxGeometry x="260" y="750" width="160" height="150" as="geometry"/>
                </mxCell>
                <mxCell id="53" value="" style="ellipse;whiteSpace=wrap;html=1;aspect=fixed;" parent="52" vertex="1">
                    <mxGeometry x="10" width="150" height="150" as="geometry"/>
                </mxCell>
                <mxCell id="54" value="" style="endArrow=none;html=1;entryX=0.267;entryY=0.953;entryDx=0;entryDy=0;entryPerimeter=0;exitX=0.267;exitY=0.033;exitDx=0;exitDy=0;exitPerimeter=0;" parent="52" source="53" target="53" edge="1">
                    <mxGeometry width="50" height="50" relative="1" as="geometry">
                        <mxPoint x="50" y="10" as="sourcePoint"/>
                        <mxPoint x="50" y="150" as="targetPoint"/>
                    </mxGeometry>
                </mxCell>
                <mxCell id="55" value="" style="endArrow=none;html=1;entryX=0.673;entryY=0.033;entryDx=0;entryDy=0;entryPerimeter=0;exitX=0.68;exitY=0.973;exitDx=0;exitDy=0;exitPerimeter=0;" parent="52" source="53" target="53" edge="1">
                    <mxGeometry width="50" height="50" relative="1" as="geometry">
                        <mxPoint x="90" y="110" as="sourcePoint"/>
                        <mxPoint x="140" y="60" as="targetPoint"/>
                    </mxGeometry>
                </mxCell>
                <mxCell id="56" value="" style="endArrow=none;html=1;exitX=0;exitY=0.5;exitDx=0;exitDy=0;" parent="52" source="53" edge="1">
                    <mxGeometry width="50" height="50" relative="1" as="geometry">
                        <mxPoint x="60" y="100" as="sourcePoint"/>
                        <mxPoint x="50" y="75" as="targetPoint"/>
                    </mxGeometry>
                </mxCell>
                <mxCell id="57" value="" style="endArrow=none;html=1;exitX=1;exitY=0.5;exitDx=0;exitDy=0;" parent="52" source="53" edge="1">
                    <mxGeometry width="50" height="50" relative="1" as="geometry">
                        <mxPoint x="170" y="260" as="sourcePoint"/>
                        <mxPoint x="110" y="75" as="targetPoint"/>
                    </mxGeometry>
                </mxCell>
                <mxCell id="58" value="Definir&lt;br&gt;tiempo/&lt;br&gt;recursos" style="text;html=1;strokeColor=none;fillColor=none;align=center;verticalAlign=middle;whiteSpace=wrap;rounded=0;" parent="52" vertex="1">
                    <mxGeometry x="50" y="10" width="60" height="30" as="geometry"/>
                </mxCell>
                <mxCell id="59" value="2" style="text;html=1;strokeColor=none;fillColor=none;align=center;verticalAlign=middle;whiteSpace=wrap;rounded=0;" parent="52" vertex="1">
                    <mxGeometry x="50" y="100" width="60" height="30" as="geometry"/>
                </mxCell>
                <mxCell id="60" value="0" style="text;html=1;strokeColor=none;fillColor=none;align=center;verticalAlign=middle;whiteSpace=wrap;rounded=0;" parent="52" vertex="1">
                    <mxGeometry y="40" width="60" height="30" as="geometry"/>
                </mxCell>
                <mxCell id="61" value="0" style="text;html=1;strokeColor=none;fillColor=none;align=center;verticalAlign=middle;whiteSpace=wrap;rounded=0;" parent="52" vertex="1">
                    <mxGeometry y="90" width="60" height="30" as="geometry"/>
                </mxCell>
                <mxCell id="62" value="2" style="text;html=1;strokeColor=none;fillColor=none;align=center;verticalAlign=middle;whiteSpace=wrap;rounded=0;" parent="52" vertex="1">
                    <mxGeometry x="100" y="40" width="60" height="30" as="geometry"/>
                </mxCell>
                <mxCell id="63" value="2" style="text;html=1;strokeColor=none;fillColor=none;align=center;verticalAlign=middle;whiteSpace=wrap;rounded=0;" parent="52" vertex="1">
                    <mxGeometry x="100" y="90" width="60" height="30" as="geometry"/>
                </mxCell>
                <mxCell id="64" value="" style="group" parent="1" connectable="0" vertex="1">
                    <mxGeometry x="260" y="50" width="160" height="150" as="geometry"/>
                </mxCell>
                <mxCell id="65" value="" style="ellipse;whiteSpace=wrap;html=1;aspect=fixed;" parent="64" vertex="1">
                    <mxGeometry x="10" width="150" height="150" as="geometry"/>
                </mxCell>
                <mxCell id="66" value="" style="endArrow=none;html=1;entryX=0.267;entryY=0.953;entryDx=0;entryDy=0;entryPerimeter=0;exitX=0.267;exitY=0.033;exitDx=0;exitDy=0;exitPerimeter=0;" parent="64" source="65" target="65" edge="1">
                    <mxGeometry width="50" height="50" relative="1" as="geometry">
                        <mxPoint x="50" y="10" as="sourcePoint"/>
                        <mxPoint x="50" y="150" as="targetPoint"/>
                    </mxGeometry>
                </mxCell>
                <mxCell id="67" value="" style="endArrow=none;html=1;entryX=0.673;entryY=0.033;entryDx=0;entryDy=0;entryPerimeter=0;exitX=0.68;exitY=0.973;exitDx=0;exitDy=0;exitPerimeter=0;" parent="64" source="65" target="65" edge="1">
                    <mxGeometry width="50" height="50" relative="1" as="geometry">
                        <mxPoint x="90" y="110" as="sourcePoint"/>
                        <mxPoint x="140" y="60" as="targetPoint"/>
                    </mxGeometry>
                </mxCell>
                <mxCell id="68" value="" style="endArrow=none;html=1;exitX=0;exitY=0.5;exitDx=0;exitDy=0;" parent="64" source="65" edge="1">
                    <mxGeometry width="50" height="50" relative="1" as="geometry">
                        <mxPoint x="60" y="100" as="sourcePoint"/>
                        <mxPoint x="50" y="75" as="targetPoint"/>
                    </mxGeometry>
                </mxCell>
                <mxCell id="69" value="" style="endArrow=none;html=1;exitX=1;exitY=0.5;exitDx=0;exitDy=0;" parent="64" source="65" edge="1">
                    <mxGeometry width="50" height="50" relative="1" as="geometry">
                        <mxPoint x="170" y="260" as="sourcePoint"/>
                        <mxPoint x="110" y="75" as="targetPoint"/>
                    </mxGeometry>
                </mxCell>
                <mxCell id="70" value="&lt;font style=&quot;font-size: 10px;&quot;&gt;Documentar&lt;br&gt;requerimientos&lt;/font&gt;" style="text;html=1;strokeColor=none;fillColor=none;align=center;verticalAlign=middle;whiteSpace=wrap;rounded=0;" parent="64" vertex="1">
                    <mxGeometry x="50" y="10" width="60" height="30" as="geometry"/>
                </mxCell>
                <mxCell id="71" value="2" style="text;html=1;strokeColor=none;fillColor=none;align=center;verticalAlign=middle;whiteSpace=wrap;rounded=0;" parent="64" vertex="1">
                    <mxGeometry x="50" y="100" width="60" height="30" as="geometry"/>
                </mxCell>
                <mxCell id="72" value="0" style="text;html=1;strokeColor=none;fillColor=none;align=center;verticalAlign=middle;whiteSpace=wrap;rounded=0;" parent="64" vertex="1">
                    <mxGeometry y="40" width="60" height="30" as="geometry"/>
                </mxCell>
                <mxCell id="73" value="0" style="text;html=1;strokeColor=none;fillColor=none;align=center;verticalAlign=middle;whiteSpace=wrap;rounded=0;" parent="64" vertex="1">
                    <mxGeometry y="90" width="60" height="30" as="geometry"/>
                </mxCell>
                <mxCell id="74" value="2" style="text;html=1;strokeColor=none;fillColor=none;align=center;verticalAlign=middle;whiteSpace=wrap;rounded=0;" parent="64" vertex="1">
                    <mxGeometry x="100" y="40" width="60" height="30" as="geometry"/>
                </mxCell>
                <mxCell id="75" value="2" style="text;html=1;strokeColor=none;fillColor=none;align=center;verticalAlign=middle;whiteSpace=wrap;rounded=0;" parent="64" vertex="1">
                    <mxGeometry x="100" y="90" width="60" height="30" as="geometry"/>
                </mxCell>
                <mxCell id="76" value="" style="group" parent="1" connectable="0" vertex="1">
                    <mxGeometry x="260" y="980" width="160" height="150" as="geometry"/>
                </mxCell>
                <mxCell id="77" value="" style="ellipse;whiteSpace=wrap;html=1;aspect=fixed;" parent="76" vertex="1">
                    <mxGeometry x="10" width="150" height="150" as="geometry"/>
                </mxCell>
                <mxCell id="78" value="" style="endArrow=none;html=1;entryX=0.267;entryY=0.953;entryDx=0;entryDy=0;entryPerimeter=0;exitX=0.267;exitY=0.033;exitDx=0;exitDy=0;exitPerimeter=0;" parent="76" source="77" target="77" edge="1">
                    <mxGeometry width="50" height="50" relative="1" as="geometry">
                        <mxPoint x="50" y="10" as="sourcePoint"/>
                        <mxPoint x="50" y="150" as="targetPoint"/>
                    </mxGeometry>
                </mxCell>
                <mxCell id="79" value="" style="endArrow=none;html=1;entryX=0.673;entryY=0.033;entryDx=0;entryDy=0;entryPerimeter=0;exitX=0.68;exitY=0.973;exitDx=0;exitDy=0;exitPerimeter=0;" parent="76" source="77" target="77" edge="1">
                    <mxGeometry width="50" height="50" relative="1" as="geometry">
                        <mxPoint x="90" y="110" as="sourcePoint"/>
                        <mxPoint x="140" y="60" as="targetPoint"/>
                    </mxGeometry>
                </mxCell>
                <mxCell id="80" value="" style="endArrow=none;html=1;exitX=0;exitY=0.5;exitDx=0;exitDy=0;" parent="76" source="77" edge="1">
                    <mxGeometry width="50" height="50" relative="1" as="geometry">
                        <mxPoint x="60" y="100" as="sourcePoint"/>
                        <mxPoint x="50" y="75" as="targetPoint"/>
                    </mxGeometry>
                </mxCell>
                <mxCell id="81" value="" style="endArrow=none;html=1;exitX=1;exitY=0.5;exitDx=0;exitDy=0;" parent="76" source="77" edge="1">
                    <mxGeometry width="50" height="50" relative="1" as="geometry">
                        <mxPoint x="170" y="260" as="sourcePoint"/>
                        <mxPoint x="110" y="75" as="targetPoint"/>
                    </mxGeometry>
                </mxCell>
                <mxCell id="82" value="&lt;span style=&quot;font-size: 10px;&quot;&gt;LÃ³gica de&lt;br&gt;&lt;/span&gt;negocios" style="text;html=1;strokeColor=none;fillColor=none;align=center;verticalAlign=middle;whiteSpace=wrap;rounded=0;" parent="76" vertex="1">
                    <mxGeometry x="50" y="10" width="60" height="30" as="geometry"/>
                </mxCell>
                <mxCell id="83" value="2" style="text;html=1;strokeColor=none;fillColor=none;align=center;verticalAlign=middle;whiteSpace=wrap;rounded=0;" parent="76" vertex="1">
                    <mxGeometry x="50" y="100" width="60" height="30" as="geometry"/>
                </mxCell>
                <mxCell id="84" value="0" style="text;html=1;strokeColor=none;fillColor=none;align=center;verticalAlign=middle;whiteSpace=wrap;rounded=0;" parent="76" vertex="1">
                    <mxGeometry y="40" width="60" height="30" as="geometry"/>
                </mxCell>
                <mxCell id="85" value="0" style="text;html=1;strokeColor=none;fillColor=none;align=center;verticalAlign=middle;whiteSpace=wrap;rounded=0;" parent="76" vertex="1">
                    <mxGeometry y="90" width="60" height="30" as="geometry"/>
                </mxCell>
                <mxCell id="86" value="2" style="text;html=1;strokeColor=none;fillColor=none;align=center;verticalAlign=middle;whiteSpace=wrap;rounded=0;" parent="76" vertex="1">
                    <mxGeometry x="100" y="40" width="60" height="30" as="geometry"/>
                </mxCell>
                <mxCell id="87" value="2" style="text;html=1;strokeColor=none;fillColor=none;align=center;verticalAlign=middle;whiteSpace=wrap;rounded=0;" parent="76" vertex="1">
                    <mxGeometry x="100" y="90" width="60" height="30" as="geometry"/>
                </mxCell>
                <mxCell id="88" value="" style="group" parent="1" connectable="0" vertex="1">
                    <mxGeometry x="530" y="520" width="160" height="150" as="geometry"/>
                </mxCell>
                <mxCell id="89" value="" style="ellipse;whiteSpace=wrap;html=1;aspect=fixed;" parent="88" vertex="1">
                    <mxGeometry x="10" width="150" height="150" as="geometry"/>
                </mxCell>
                <mxCell id="90" value="" style="endArrow=none;html=1;entryX=0.267;entryY=0.953;entryDx=0;entryDy=0;entryPerimeter=0;exitX=0.267;exitY=0.033;exitDx=0;exitDy=0;exitPerimeter=0;" parent="88" source="89" target="89" edge="1">
                    <mxGeometry width="50" height="50" relative="1" as="geometry">
                        <mxPoint x="50" y="10" as="sourcePoint"/>
                        <mxPoint x="50" y="150" as="targetPoint"/>
                    </mxGeometry>
                </mxCell>
                <mxCell id="91" value="" style="endArrow=none;html=1;entryX=0.673;entryY=0.033;entryDx=0;entryDy=0;entryPerimeter=0;exitX=0.68;exitY=0.973;exitDx=0;exitDy=0;exitPerimeter=0;" parent="88" source="89" target="89" edge="1">
                    <mxGeometry width="50" height="50" relative="1" as="geometry">
                        <mxPoint x="90" y="110" as="sourcePoint"/>
                        <mxPoint x="140" y="60" as="targetPoint"/>
                    </mxGeometry>
                </mxCell>
                <mxCell id="92" value="" style="endArrow=none;html=1;exitX=0;exitY=0.5;exitDx=0;exitDy=0;" parent="88" source="89" edge="1">
                    <mxGeometry width="50" height="50" relative="1" as="geometry">
                        <mxPoint x="60" y="100" as="sourcePoint"/>
                        <mxPoint x="50" y="75" as="targetPoint"/>
                    </mxGeometry>
                </mxCell>
                <mxCell id="93" value="" style="endArrow=none;html=1;exitX=1;exitY=0.5;exitDx=0;exitDy=0;" parent="88" source="89" edge="1">
                    <mxGeometry width="50" height="50" relative="1" as="geometry">
                        <mxPoint x="170" y="260" as="sourcePoint"/>
                        <mxPoint x="110" y="75" as="targetPoint"/>
                    </mxGeometry>
                </mxCell>
                <mxCell id="94" value="IntegraciÃ³n&lt;br&gt;anÃ¡lisis" style="text;html=1;strokeColor=none;fillColor=none;align=center;verticalAlign=middle;whiteSpace=wrap;rounded=0;" parent="88" vertex="1">
                    <mxGeometry x="50" y="10" width="60" height="30" as="geometry"/>
                </mxCell>
                <mxCell id="95" value="1" style="text;html=1;strokeColor=none;fillColor=none;align=center;verticalAlign=middle;whiteSpace=wrap;rounded=0;" parent="88" vertex="1">
                    <mxGeometry x="50" y="100" width="60" height="30" as="geometry"/>
                </mxCell>
                <mxCell id="96" value="3" style="text;html=1;strokeColor=none;fillColor=none;align=center;verticalAlign=middle;whiteSpace=wrap;rounded=0;" parent="88" vertex="1">
                    <mxGeometry y="40" width="60" height="30" as="geometry"/>
                </mxCell>
                <mxCell id="97" value="2" style="text;html=1;strokeColor=none;fillColor=none;align=center;verticalAlign=middle;whiteSpace=wrap;rounded=0;" parent="88" vertex="1">
                    <mxGeometry y="90" width="60" height="30" as="geometry"/>
                </mxCell>
                <mxCell id="98" value="4" style="text;html=1;strokeColor=none;fillColor=none;align=center;verticalAlign=middle;whiteSpace=wrap;rounded=0;" parent="88" vertex="1">
                    <mxGeometry x="100" y="40" width="60" height="30" as="geometry"/>
                </mxCell>
                <mxCell id="99" value="3" style="text;html=1;strokeColor=none;fillColor=none;align=center;verticalAlign=middle;whiteSpace=wrap;rounded=0;" parent="88" vertex="1">
                    <mxGeometry x="100" y="90" width="60" height="30" as="geometry"/>
                </mxCell>
                <mxCell id="102" value="" style="group" parent="1" connectable="0" vertex="1">
                    <mxGeometry x="851" y="520" width="160" height="150" as="geometry"/>
                </mxCell>
                <mxCell id="103" value="" style="ellipse;whiteSpace=wrap;html=1;aspect=fixed;" parent="102" vertex="1">
                    <mxGeometry x="10" width="150" height="150" as="geometry"/>
                </mxCell>
                <mxCell id="104" value="" style="endArrow=none;html=1;entryX=0.267;entryY=0.953;entryDx=0;entryDy=0;entryPerimeter=0;exitX=0.267;exitY=0.033;exitDx=0;exitDy=0;exitPerimeter=0;" parent="102" source="103" target="103" edge="1">
                    <mxGeometry width="50" height="50" relative="1" as="geometry">
                        <mxPoint x="50" y="10" as="sourcePoint"/>
                        <mxPoint x="50" y="150" as="targetPoint"/>
                    </mxGeometry>
                </mxCell>
                <mxCell id="105" value="" style="endArrow=none;html=1;entryX=0.673;entryY=0.033;entryDx=0;entryDy=0;entryPerimeter=0;exitX=0.68;exitY=0.973;exitDx=0;exitDy=0;exitPerimeter=0;" parent="102" source="103" target="103" edge="1">
                    <mxGeometry width="50" height="50" relative="1" as="geometry">
                        <mxPoint x="90" y="110" as="sourcePoint"/>
                        <mxPoint x="140" y="60" as="targetPoint"/>
                    </mxGeometry>
                </mxCell>
                <mxCell id="106" value="" style="endArrow=none;html=1;exitX=0;exitY=0.5;exitDx=0;exitDy=0;" parent="102" source="103" edge="1">
                    <mxGeometry width="50" height="50" relative="1" as="geometry">
                        <mxPoint x="60" y="100" as="sourcePoint"/>
                        <mxPoint x="50" y="75" as="targetPoint"/>
                    </mxGeometry>
                </mxCell>
                <mxCell id="107" value="" style="endArrow=none;html=1;exitX=1;exitY=0.5;exitDx=0;exitDy=0;" parent="102" source="103" edge="1">
                    <mxGeometry width="50" height="50" relative="1" as="geometry">
                        <mxPoint x="170" y="260" as="sourcePoint"/>
                        <mxPoint x="110" y="75" as="targetPoint"/>
                    </mxGeometry>
                </mxCell>
                <mxCell id="108" value="DiseÃ±o&lt;br&gt;componentes" style="text;html=1;strokeColor=none;fillColor=none;align=center;verticalAlign=middle;whiteSpace=wrap;rounded=0;" parent="102" vertex="1">
                    <mxGeometry x="50" y="10" width="60" height="30" as="geometry"/>
                </mxCell>
                <mxCell id="109" value="3" style="text;html=1;strokeColor=none;fillColor=none;align=center;verticalAlign=middle;whiteSpace=wrap;rounded=0;" parent="102" vertex="1">
                    <mxGeometry x="50" y="100" width="60" height="30" as="geometry"/>
                </mxCell>
                <mxCell id="110" value="4" style="text;html=1;strokeColor=none;fillColor=none;align=center;verticalAlign=middle;whiteSpace=wrap;rounded=0;" parent="102" vertex="1">
                    <mxGeometry y="40" width="60" height="30" as="geometry"/>
                </mxCell>
                <mxCell id="111" value="6" style="text;html=1;strokeColor=none;fillColor=none;align=center;verticalAlign=middle;whiteSpace=wrap;rounded=0;" parent="102" vertex="1">
                    <mxGeometry y="90" width="60" height="30" as="geometry"/>
                </mxCell>
                <mxCell id="112" value="7" style="text;html=1;strokeColor=none;fillColor=none;align=center;verticalAlign=middle;whiteSpace=wrap;rounded=0;" parent="102" vertex="1">
                    <mxGeometry x="100" y="40" width="60" height="30" as="geometry"/>
                </mxCell>
                <mxCell id="113" value="9" style="text;html=1;strokeColor=none;fillColor=none;align=center;verticalAlign=middle;whiteSpace=wrap;rounded=0;" parent="102" vertex="1">
                    <mxGeometry x="100" y="90" width="60" height="30" as="geometry"/>
                </mxCell>
                <mxCell id="114" value="" style="group" parent="1" connectable="0" vertex="1">
                    <mxGeometry x="1081" y="520" width="160" height="150" as="geometry"/>
                </mxCell>
                <mxCell id="115" value="" style="ellipse;whiteSpace=wrap;html=1;aspect=fixed;" parent="114" vertex="1">
                    <mxGeometry x="10" width="150" height="150" as="geometry"/>
                </mxCell>
                <mxCell id="116" value="" style="endArrow=none;html=1;entryX=0.267;entryY=0.953;entryDx=0;entryDy=0;entryPerimeter=0;exitX=0.267;exitY=0.033;exitDx=0;exitDy=0;exitPerimeter=0;" parent="114" source="115" target="115" edge="1">
                    <mxGeometry width="50" height="50" relative="1" as="geometry">
                        <mxPoint x="50" y="10" as="sourcePoint"/>
                        <mxPoint x="50" y="150" as="targetPoint"/>
                    </mxGeometry>
                </mxCell>
                <mxCell id="117" value="" style="endArrow=none;html=1;entryX=0.673;entryY=0.033;entryDx=0;entryDy=0;entryPerimeter=0;exitX=0.68;exitY=0.973;exitDx=0;exitDy=0;exitPerimeter=0;" parent="114" source="115" target="115" edge="1">
                    <mxGeometry width="50" height="50" relative="1" as="geometry">
                        <mxPoint x="90" y="110" as="sourcePoint"/>
                        <mxPoint x="140" y="60" as="targetPoint"/>
                    </mxGeometry>
                </mxCell>
                <mxCell id="118" value="" style="endArrow=none;html=1;exitX=0;exitY=0.5;exitDx=0;exitDy=0;" parent="114" source="115" edge="1">
                    <mxGeometry width="50" height="50" relative="1" as="geometry">
                        <mxPoint x="60" y="100" as="sourcePoint"/>
                        <mxPoint x="50" y="75" as="targetPoint"/>
                    </mxGeometry>
                </mxCell>
                <mxCell id="119" value="" style="endArrow=none;html=1;exitX=1;exitY=0.5;exitDx=0;exitDy=0;" parent="114" source="115" edge="1">
                    <mxGeometry width="50" height="50" relative="1" as="geometry">
                        <mxPoint x="170" y="260" as="sourcePoint"/>
                        <mxPoint x="110" y="75" as="targetPoint"/>
                    </mxGeometry>
                </mxCell>
                <mxCell id="120" value="DiseÃ±o&lt;br&gt;interfaces" style="text;html=1;strokeColor=none;fillColor=none;align=center;verticalAlign=middle;whiteSpace=wrap;rounded=0;" parent="114" vertex="1">
                    <mxGeometry x="50" y="10" width="60" height="30" as="geometry"/>
                </mxCell>
                <mxCell id="121" value="2" style="text;html=1;strokeColor=none;fillColor=none;align=center;verticalAlign=middle;whiteSpace=wrap;rounded=0;" parent="114" vertex="1">
                    <mxGeometry x="50" y="100" width="60" height="30" as="geometry"/>
                </mxCell>
                <mxCell id="122" value="7" style="text;html=1;strokeColor=none;fillColor=none;align=center;verticalAlign=middle;whiteSpace=wrap;rounded=0;" parent="114" vertex="1">
                    <mxGeometry y="40" width="60" height="30" as="geometry"/>
                </mxCell>
                <mxCell id="123" value="9" style="text;html=1;strokeColor=none;fillColor=none;align=center;verticalAlign=middle;whiteSpace=wrap;rounded=0;" parent="114" vertex="1">
                    <mxGeometry y="90" width="60" height="30" as="geometry"/>
                </mxCell>
                <mxCell id="124" value="9" style="text;html=1;strokeColor=none;fillColor=none;align=center;verticalAlign=middle;whiteSpace=wrap;rounded=0;" parent="114" vertex="1">
                    <mxGeometry x="100" y="40" width="60" height="30" as="geometry"/>
                </mxCell>
                <mxCell id="125" value="11" style="text;html=1;strokeColor=none;fillColor=none;align=center;verticalAlign=middle;whiteSpace=wrap;rounded=0;" parent="114" vertex="1">
                    <mxGeometry x="100" y="90" width="60" height="30" as="geometry"/>
                </mxCell>
                <mxCell id="126" value="" style="group" parent="1" connectable="0" vertex="1">
                    <mxGeometry x="1081" y="750" width="160" height="150" as="geometry"/>
                </mxCell>
                <mxCell id="127" value="" style="ellipse;whiteSpace=wrap;html=1;aspect=fixed;" parent="126" vertex="1">
                    <mxGeometry x="10" width="150" height="150" as="geometry"/>
                </mxCell>
                <mxCell id="128" value="" style="endArrow=none;html=1;entryX=0.267;entryY=0.953;entryDx=0;entryDy=0;entryPerimeter=0;exitX=0.267;exitY=0.033;exitDx=0;exitDy=0;exitPerimeter=0;" parent="126" source="127" target="127" edge="1">
                    <mxGeometry width="50" height="50" relative="1" as="geometry">
                        <mxPoint x="50" y="10" as="sourcePoint"/>
                        <mxPoint x="50" y="150" as="targetPoint"/>
                    </mxGeometry>
                </mxCell>
                <mxCell id="129" value="" style="endArrow=none;html=1;entryX=0.673;entryY=0.033;entryDx=0;entryDy=0;entryPerimeter=0;exitX=0.68;exitY=0.973;exitDx=0;exitDy=0;exitPerimeter=0;" parent="126" source="127" target="127" edge="1">
                    <mxGeometry width="50" height="50" relative="1" as="geometry">
                        <mxPoint x="90" y="110" as="sourcePoint"/>
                        <mxPoint x="140" y="60" as="targetPoint"/>
                    </mxGeometry>
                </mxCell>
                <mxCell id="130" value="" style="endArrow=none;html=1;exitX=0;exitY=0.5;exitDx=0;exitDy=0;" parent="126" source="127" edge="1">
                    <mxGeometry width="50" height="50" relative="1" as="geometry">
                        <mxPoint x="60" y="100" as="sourcePoint"/>
                        <mxPoint x="50" y="75" as="targetPoint"/>
                    </mxGeometry>
                </mxCell>
                <mxCell id="131" value="" style="endArrow=none;html=1;exitX=1;exitY=0.5;exitDx=0;exitDy=0;" parent="126" source="127" edge="1">
                    <mxGeometry width="50" height="50" relative="1" as="geometry">
                        <mxPoint x="170" y="260" as="sourcePoint"/>
                        <mxPoint x="110" y="75" as="targetPoint"/>
                    </mxGeometry>
                </mxCell>
                <mxCell id="132" value="DiseÃ±o tablas&lt;br&gt;BD" style="text;html=1;strokeColor=none;fillColor=none;align=center;verticalAlign=middle;whiteSpace=wrap;rounded=0;" parent="126" vertex="1">
                    <mxGeometry x="50" y="10" width="60" height="30" as="geometry"/>
                </mxCell>
                <mxCell id="133" value="3" style="text;html=1;strokeColor=none;fillColor=none;align=center;verticalAlign=middle;whiteSpace=wrap;rounded=0;" parent="126" vertex="1">
                    <mxGeometry x="50" y="100" width="60" height="30" as="geometry"/>
                </mxCell>
                <mxCell id="134" value="5" style="text;html=1;strokeColor=none;fillColor=none;align=center;verticalAlign=middle;whiteSpace=wrap;rounded=0;" parent="126" vertex="1">
                    <mxGeometry y="40" width="60" height="30" as="geometry"/>
                </mxCell>
                <mxCell id="135" value="8" style="text;html=1;strokeColor=none;fillColor=none;align=center;verticalAlign=middle;whiteSpace=wrap;rounded=0;" parent="126" vertex="1">
                    <mxGeometry y="90" width="60" height="30" as="geometry"/>
                </mxCell>
                <mxCell id="136" value="8" style="text;html=1;strokeColor=none;fillColor=none;align=center;verticalAlign=middle;whiteSpace=wrap;rounded=0;" parent="126" vertex="1">
                    <mxGeometry x="100" y="40" width="60" height="30" as="geometry"/>
                </mxCell>
                <mxCell id="137" value="11" style="text;html=1;strokeColor=none;fillColor=none;align=center;verticalAlign=middle;whiteSpace=wrap;rounded=0;" parent="126" vertex="1">
                    <mxGeometry x="100" y="90" width="60" height="30" as="geometry"/>
                </mxCell>
                <mxCell id="138" value="" style="group" parent="1" connectable="0" vertex="1">
                    <mxGeometry x="851" y="750" width="160" height="150" as="geometry"/>
                </mxCell>
                <mxCell id="139" value="" style="ellipse;whiteSpace=wrap;html=1;aspect=fixed;" parent="138" vertex="1">
                    <mxGeometry x="10" width="150" height="150" as="geometry"/>
                </mxCell>
                <mxCell id="140" value="" style="endArrow=none;html=1;entryX=0.267;entryY=0.953;entryDx=0;entryDy=0;entryPerimeter=0;exitX=0.267;exitY=0.033;exitDx=0;exitDy=0;exitPerimeter=0;" parent="138" source="139" target="139" edge="1">
                    <mxGeometry width="50" height="50" relative="1" as="geometry">
                        <mxPoint x="50" y="10" as="sourcePoint"/>
                        <mxPoint x="50" y="150" as="targetPoint"/>
                    </mxGeometry>
                </mxCell>
                <mxCell id="141" value="" style="endArrow=none;html=1;entryX=0.673;entryY=0.033;entryDx=0;entryDy=0;entryPerimeter=0;exitX=0.68;exitY=0.973;exitDx=0;exitDy=0;exitPerimeter=0;" parent="138" source="139" target="139" edge="1">
                    <mxGeometry width="50" height="50" relative="1" as="geometry">
                        <mxPoint x="90" y="110" as="sourcePoint"/>
                        <mxPoint x="140" y="60" as="targetPoint"/>
                    </mxGeometry>
                </mxCell>
                <mxCell id="142" value="" style="endArrow=none;html=1;exitX=0;exitY=0.5;exitDx=0;exitDy=0;" parent="138" source="139" edge="1">
                    <mxGeometry width="50" height="50" relative="1" as="geometry">
                        <mxPoint x="60" y="100" as="sourcePoint"/>
                        <mxPoint x="50" y="75" as="targetPoint"/>
                    </mxGeometry>
                </mxCell>
                <mxCell id="143" value="" style="endArrow=none;html=1;exitX=1;exitY=0.5;exitDx=0;exitDy=0;" parent="138" source="139" edge="1">
                    <mxGeometry width="50" height="50" relative="1" as="geometry">
                        <mxPoint x="170" y="260" as="sourcePoint"/>
                        <mxPoint x="110" y="75" as="targetPoint"/>
                    </mxGeometry>
                </mxCell>
                <mxCell id="144" value="Decidir&lt;br&gt;informaciÃ³n" style="text;html=1;strokeColor=none;fillColor=none;align=center;verticalAlign=middle;whiteSpace=wrap;rounded=0;" parent="138" vertex="1">
                    <mxGeometry x="50" y="10" width="60" height="30" as="geometry"/>
                </mxCell>
                <mxCell id="145" value="1" style="text;html=1;strokeColor=none;fillColor=none;align=center;verticalAlign=middle;whiteSpace=wrap;rounded=0;" parent="138" vertex="1">
                    <mxGeometry x="50" y="100" width="60" height="30" as="geometry"/>
                </mxCell>
                <mxCell id="146" value="4" style="text;html=1;strokeColor=none;fillColor=none;align=center;verticalAlign=middle;whiteSpace=wrap;rounded=0;" parent="138" vertex="1">
                    <mxGeometry y="40" width="60" height="30" as="geometry"/>
                </mxCell>
                <mxCell id="147" value="7" style="text;html=1;strokeColor=none;fillColor=none;align=center;verticalAlign=middle;whiteSpace=wrap;rounded=0;" parent="138" vertex="1">
                    <mxGeometry y="90" width="60" height="30" as="geometry"/>
                </mxCell>
                <mxCell id="148" value="5" style="text;html=1;strokeColor=none;fillColor=none;align=center;verticalAlign=middle;whiteSpace=wrap;rounded=0;" parent="138" vertex="1">
                    <mxGeometry x="100" y="40" width="60" height="30" as="geometry"/>
                </mxCell>
                <mxCell id="149" value="8" style="text;html=1;strokeColor=none;fillColor=none;align=center;verticalAlign=middle;whiteSpace=wrap;rounded=0;" parent="138" vertex="1">
                    <mxGeometry x="100" y="90" width="60" height="30" as="geometry"/>
                </mxCell>
                <mxCell id="150" value="" style="group" parent="1" connectable="0" vertex="1">
                    <mxGeometry x="720" y="260" width="160" height="150" as="geometry"/>
                </mxCell>
                <mxCell id="151" value="" style="ellipse;whiteSpace=wrap;html=1;aspect=fixed;" parent="150" vertex="1">
                    <mxGeometry x="10" width="150" height="150" as="geometry"/>
                </mxCell>
                <mxCell id="152" value="" style="endArrow=none;html=1;entryX=0.267;entryY=0.953;entryDx=0;entryDy=0;entryPerimeter=0;exitX=0.267;exitY=0.033;exitDx=0;exitDy=0;exitPerimeter=0;" parent="150" source="151" target="151" edge="1">
                    <mxGeometry width="50" height="50" relative="1" as="geometry">
                        <mxPoint x="50" y="10" as="sourcePoint"/>
                        <mxPoint x="50" y="150" as="targetPoint"/>
                    </mxGeometry>
                </mxCell>
                <mxCell id="153" value="" style="endArrow=none;html=1;entryX=0.673;entryY=0.033;entryDx=0;entryDy=0;entryPerimeter=0;exitX=0.68;exitY=0.973;exitDx=0;exitDy=0;exitPerimeter=0;" parent="150" source="151" target="151" edge="1">
                    <mxGeometry width="50" height="50" relative="1" as="geometry">
                        <mxPoint x="90" y="110" as="sourcePoint"/>
                        <mxPoint x="140" y="60" as="targetPoint"/>
                    </mxGeometry>
                </mxCell>
                <mxCell id="154" value="" style="endArrow=none;html=1;exitX=0;exitY=0.5;exitDx=0;exitDy=0;" parent="150" source="151" edge="1">
                    <mxGeometry width="50" height="50" relative="1" as="geometry">
                        <mxPoint x="60" y="100" as="sourcePoint"/>
                        <mxPoint x="50" y="75" as="targetPoint"/>
                    </mxGeometry>
                </mxCell>
                <mxCell id="155" value="" style="endArrow=none;html=1;exitX=1;exitY=0.5;exitDx=0;exitDy=0;" parent="150" source="151" edge="1">
                    <mxGeometry width="50" height="50" relative="1" as="geometry">
                        <mxPoint x="170" y="260" as="sourcePoint"/>
                        <mxPoint x="110" y="75" as="targetPoint"/>
                    </mxGeometry>
                </mxCell>
                <mxCell id="156" value="Decidir tecnologÃ­as&lt;br&gt;y servicios" style="text;html=1;strokeColor=none;fillColor=none;align=center;verticalAlign=middle;whiteSpace=wrap;rounded=0;" parent="150" vertex="1">
                    <mxGeometry x="50" y="10" width="60" height="30" as="geometry"/>
                </mxCell>
                <mxCell id="157" value="2" style="text;html=1;strokeColor=none;fillColor=none;align=center;verticalAlign=middle;whiteSpace=wrap;rounded=0;" parent="150" vertex="1">
                    <mxGeometry x="50" y="100" width="60" height="30" as="geometry"/>
                </mxCell>
                <mxCell id="158" value="4" style="text;html=1;strokeColor=none;fillColor=none;align=center;verticalAlign=middle;whiteSpace=wrap;rounded=0;" parent="150" vertex="1">
                    <mxGeometry y="40" width="60" height="30" as="geometry"/>
                </mxCell>
                <mxCell id="159" value="3" style="text;html=1;strokeColor=none;fillColor=none;align=center;verticalAlign=middle;whiteSpace=wrap;rounded=0;" parent="150" vertex="1">
                    <mxGeometry y="90" width="60" height="30" as="geometry"/>
                </mxCell>
                <mxCell id="160" value="6" style="text;html=1;strokeColor=none;fillColor=none;align=center;verticalAlign=middle;whiteSpace=wrap;rounded=0;" parent="150" vertex="1">
                    <mxGeometry x="100" y="40" width="60" height="30" as="geometry"/>
                </mxCell>
                <mxCell id="161" value="5" style="text;html=1;strokeColor=none;fillColor=none;align=center;verticalAlign=middle;whiteSpace=wrap;rounded=0;" parent="150" vertex="1">
                    <mxGeometry x="100" y="90" width="60" height="30" as="geometry"/>
                </mxCell>
                <mxCell id="162" value="" style="group" parent="1" connectable="0" vertex="1">
                    <mxGeometry x="950" y="260" width="160" height="150" as="geometry"/>
                </mxCell>
                <mxCell id="163" value="" style="ellipse;whiteSpace=wrap;html=1;aspect=fixed;" parent="162" vertex="1">
                    <mxGeometry x="10" width="150" height="150" as="geometry"/>
                </mxCell>
                <mxCell id="164" value="" style="endArrow=none;html=1;entryX=0.267;entryY=0.953;entryDx=0;entryDy=0;entryPerimeter=0;exitX=0.267;exitY=0.033;exitDx=0;exitDy=0;exitPerimeter=0;" parent="162" source="163" target="163" edge="1">
                    <mxGeometry width="50" height="50" relative="1" as="geometry">
                        <mxPoint x="50" y="10" as="sourcePoint"/>
                        <mxPoint x="50" y="150" as="targetPoint"/>
                    </mxGeometry>
                </mxCell>
                <mxCell id="165" value="" style="endArrow=none;html=1;entryX=0.673;entryY=0.033;entryDx=0;entryDy=0;entryPerimeter=0;exitX=0.68;exitY=0.973;exitDx=0;exitDy=0;exitPerimeter=0;" parent="162" source="163" target="163" edge="1">
                    <mxGeometry width="50" height="50" relative="1" as="geometry">
                        <mxPoint x="90" y="110" as="sourcePoint"/>
                        <mxPoint x="140" y="60" as="targetPoint"/>
                    </mxGeometry>
                </mxCell>
                <mxCell id="166" value="" style="endArrow=none;html=1;exitX=0;exitY=0.5;exitDx=0;exitDy=0;" parent="162" source="163" edge="1">
                    <mxGeometry width="50" height="50" relative="1" as="geometry">
                        <mxPoint x="60" y="100" as="sourcePoint"/>
                        <mxPoint x="50" y="75" as="targetPoint"/>
                    </mxGeometry>
                </mxCell>
                <mxCell id="167" value="" style="endArrow=none;html=1;exitX=1;exitY=0.5;exitDx=0;exitDy=0;" parent="162" source="163" edge="1">
                    <mxGeometry width="50" height="50" relative="1" as="geometry">
                        <mxPoint x="170" y="260" as="sourcePoint"/>
                        <mxPoint x="110" y="75" as="targetPoint"/>
                    </mxGeometry>
                </mxCell>
                <mxCell id="168" value="DiseÃ±o de&lt;br&gt;interconexiÃ³n&lt;br&gt;de sistemas" style="text;html=1;strokeColor=none;fillColor=none;align=center;verticalAlign=middle;whiteSpace=wrap;rounded=0;" parent="162" vertex="1">
                    <mxGeometry x="50" y="10" width="60" height="30" as="geometry"/>
                </mxCell>
                <mxCell id="169" value="3" style="text;html=1;strokeColor=none;fillColor=none;align=center;verticalAlign=middle;whiteSpace=wrap;rounded=0;" parent="162" vertex="1">
                    <mxGeometry x="50" y="100" width="60" height="30" as="geometry"/>
                </mxCell>
                <mxCell id="170" value="6" style="text;html=1;strokeColor=none;fillColor=none;align=center;verticalAlign=middle;whiteSpace=wrap;rounded=0;" parent="162" vertex="1">
                    <mxGeometry y="40" width="60" height="30" as="geometry"/>
                </mxCell>
                <mxCell id="171" value="5" style="text;html=1;strokeColor=none;fillColor=none;align=center;verticalAlign=middle;whiteSpace=wrap;rounded=0;" parent="162" vertex="1">
                    <mxGeometry y="90" width="60" height="30" as="geometry"/>
                </mxCell>
                <mxCell id="172" value="9" style="text;html=1;strokeColor=none;fillColor=none;align=center;verticalAlign=middle;whiteSpace=wrap;rounded=0;" parent="162" vertex="1">
                    <mxGeometry x="100" y="40" width="60" height="30" as="geometry"/>
                </mxCell>
                <mxCell id="173" value="8" style="text;html=1;strokeColor=none;fillColor=none;align=center;verticalAlign=middle;whiteSpace=wrap;rounded=0;" parent="162" vertex="1">
                    <mxGeometry x="100" y="90" width="60" height="30" as="geometry"/>
                </mxCell>
                <mxCell id="174" value="" style="group" parent="1" connectable="0" vertex="1">
                    <mxGeometry x="1180" y="250" width="160" height="150" as="geometry"/>
                </mxCell>
                <mxCell id="175" value="" style="ellipse;whiteSpace=wrap;html=1;aspect=fixed;" parent="174" vertex="1">
                    <mxGeometry x="10" width="150" height="150" as="geometry"/>
                </mxCell>
                <mxCell id="176" value="" style="endArrow=none;html=1;entryX=0.267;entryY=0.953;entryDx=0;entryDy=0;entryPerimeter=0;exitX=0.267;exitY=0.033;exitDx=0;exitDy=0;exitPerimeter=0;" parent="174" source="175" target="175" edge="1">
                    <mxGeometry width="50" height="50" relative="1" as="geometry">
                        <mxPoint x="50" y="10" as="sourcePoint"/>
                        <mxPoint x="50" y="150" as="targetPoint"/>
                    </mxGeometry>
                </mxCell>
                <mxCell id="177" value="" style="endArrow=none;html=1;entryX=0.673;entryY=0.033;entryDx=0;entryDy=0;entryPerimeter=0;exitX=0.68;exitY=0.973;exitDx=0;exitDy=0;exitPerimeter=0;" parent="174" source="175" target="175" edge="1">
                    <mxGeometry width="50" height="50" relative="1" as="geometry">
                        <mxPoint x="90" y="110" as="sourcePoint"/>
                        <mxPoint x="140" y="60" as="targetPoint"/>
                    </mxGeometry>
                </mxCell>
                <mxCell id="178" value="" style="endArrow=none;html=1;exitX=0;exitY=0.5;exitDx=0;exitDy=0;" parent="174" source="175" edge="1">
                    <mxGeometry width="50" height="50" relative="1" as="geometry">
                        <mxPoint x="60" y="100" as="sourcePoint"/>
                        <mxPoint x="50" y="75" as="targetPoint"/>
                    </mxGeometry>
                </mxCell>
                <mxCell id="179" value="" style="endArrow=none;html=1;exitX=1;exitY=0.5;exitDx=0;exitDy=0;" parent="174" source="175" edge="1">
                    <mxGeometry width="50" height="50" relative="1" as="geometry">
                        <mxPoint x="170" y="260" as="sourcePoint"/>
                        <mxPoint x="110" y="75" as="targetPoint"/>
                    </mxGeometry>
                </mxCell>
                <mxCell id="180" value="DiseÃ±o de arquitectura y seguridad" style="text;html=1;strokeColor=none;fillColor=none;align=center;verticalAlign=middle;whiteSpace=wrap;rounded=0;" parent="174" vertex="1">
                    <mxGeometry x="50" y="10" width="60" height="30" as="geometry"/>
                </mxCell>
                <mxCell id="181" value="3" style="text;html=1;strokeColor=none;fillColor=none;align=center;verticalAlign=middle;whiteSpace=wrap;rounded=0;" parent="174" vertex="1">
                    <mxGeometry x="50" y="100" width="60" height="30" as="geometry"/>
                </mxCell>
                <mxCell id="182" value="9" style="text;html=1;strokeColor=none;fillColor=none;align=center;verticalAlign=middle;whiteSpace=wrap;rounded=0;" parent="174" vertex="1">
                    <mxGeometry y="40" width="60" height="30" as="geometry"/>
                </mxCell>
                <mxCell id="183" value="8" style="text;html=1;strokeColor=none;fillColor=none;align=center;verticalAlign=middle;whiteSpace=wrap;rounded=0;" parent="174" vertex="1">
                    <mxGeometry y="90" width="60" height="30" as="geometry"/>
                </mxCell>
                <mxCell id="184" value="11" style="text;html=1;strokeColor=none;fillColor=none;align=center;verticalAlign=middle;whiteSpace=wrap;rounded=0;" parent="174" vertex="1">
                    <mxGeometry x="100" y="40" width="60" height="30" as="geometry"/>
                </mxCell>
                <mxCell id="185" value="11" style="text;html=1;strokeColor=none;fillColor=none;align=center;verticalAlign=middle;whiteSpace=wrap;rounded=0;" parent="174" vertex="1">
                    <mxGeometry x="100" y="90" width="60" height="30" as="geometry"/>
                </mxCell>
                <mxCell id="186" value="" style="group" parent="1" connectable="0" vertex="1">
                    <mxGeometry x="1440" y="540" width="160" height="150" as="geometry"/>
                </mxCell>
                <mxCell id="187" value="" style="ellipse;whiteSpace=wrap;html=1;aspect=fixed;" parent="186" vertex="1">
                    <mxGeometry x="10" width="150" height="150" as="geometry"/>
                </mxCell>
                <mxCell id="188" value="" style="endArrow=none;html=1;entryX=0.267;entryY=0.953;entryDx=0;entryDy=0;entryPerimeter=0;exitX=0.267;exitY=0.033;exitDx=0;exitDy=0;exitPerimeter=0;" parent="186" source="187" target="187" edge="1">
                    <mxGeometry width="50" height="50" relative="1" as="geometry">
                        <mxPoint x="50" y="10" as="sourcePoint"/>
                        <mxPoint x="50" y="150" as="targetPoint"/>
                    </mxGeometry>
                </mxCell>
                <mxCell id="189" value="" style="endArrow=none;html=1;entryX=0.673;entryY=0.033;entryDx=0;entryDy=0;entryPerimeter=0;exitX=0.68;exitY=0.973;exitDx=0;exitDy=0;exitPerimeter=0;" parent="186" source="187" target="187" edge="1">
                    <mxGeometry width="50" height="50" relative="1" as="geometry">
                        <mxPoint x="90" y="110" as="sourcePoint"/>
                        <mxPoint x="140" y="60" as="targetPoint"/>
                    </mxGeometry>
                </mxCell>
                <mxCell id="190" value="" style="endArrow=none;html=1;exitX=0;exitY=0.5;exitDx=0;exitDy=0;" parent="186" source="187" edge="1">
                    <mxGeometry width="50" height="50" relative="1" as="geometry">
                        <mxPoint x="60" y="100" as="sourcePoint"/>
                        <mxPoint x="50" y="75" as="targetPoint"/>
                    </mxGeometry>
                </mxCell>
                <mxCell id="191" value="" style="endArrow=none;html=1;exitX=1;exitY=0.5;exitDx=0;exitDy=0;" parent="186" source="187" edge="1">
                    <mxGeometry width="50" height="50" relative="1" as="geometry">
                        <mxPoint x="170" y="260" as="sourcePoint"/>
                        <mxPoint x="110" y="75" as="targetPoint"/>
                    </mxGeometry>
                </mxCell>
                <mxCell id="192" value="IntegraciÃ³n diseÃ±o" style="text;html=1;strokeColor=none;fillColor=none;align=center;verticalAlign=middle;whiteSpace=wrap;rounded=0;" parent="186" vertex="1">
                    <mxGeometry x="50" y="10" width="60" height="30" as="geometry"/>
                </mxCell>
                <mxCell id="193" value="2" style="text;html=1;strokeColor=none;fillColor=none;align=center;verticalAlign=middle;whiteSpace=wrap;rounded=0;" parent="186" vertex="1">
                    <mxGeometry x="50" y="100" width="60" height="30" as="geometry"/>
                </mxCell>
                <mxCell id="194" value="11" style="text;html=1;strokeColor=none;fillColor=none;align=center;verticalAlign=middle;whiteSpace=wrap;rounded=0;" parent="186" vertex="1">
                    <mxGeometry y="40" width="60" height="30" as="geometry"/>
                </mxCell>
                <mxCell id="195" value="11" style="text;html=1;strokeColor=none;fillColor=none;align=center;verticalAlign=middle;whiteSpace=wrap;rounded=0;" parent="186" vertex="1">
                    <mxGeometry y="90" width="60" height="30" as="geometry"/>
                </mxCell>
                <mxCell id="196" value="13" style="text;html=1;strokeColor=none;fillColor=none;align=center;verticalAlign=middle;whiteSpace=wrap;rounded=0;" parent="186" vertex="1">
                    <mxGeometry x="100" y="40" width="60" height="30" as="geometry"/>
                </mxCell>
                <mxCell id="197" value="13" style="text;html=1;strokeColor=none;fillColor=none;align=center;verticalAlign=middle;whiteSpace=wrap;rounded=0;" parent="186" vertex="1">
                    <mxGeometry x="100" y="90" width="60" height="30" as="geometry"/>
                </mxCell>
                <mxCell id="198" value="" style="group" parent="1" connectable="0" vertex="1">
                    <mxGeometry x="1710" y="980" width="160" height="150" as="geometry"/>
                </mxCell>
                <mxCell id="199" value="" style="ellipse;whiteSpace=wrap;html=1;aspect=fixed;" parent="198" vertex="1">
                    <mxGeometry x="10" width="150" height="150" as="geometry"/>
                </mxCell>
                <mxCell id="200" value="" style="endArrow=none;html=1;entryX=0.267;entryY=0.953;entryDx=0;entryDy=0;entryPerimeter=0;exitX=0.267;exitY=0.033;exitDx=0;exitDy=0;exitPerimeter=0;" parent="198" source="199" target="199" edge="1">
                    <mxGeometry width="50" height="50" relative="1" as="geometry">
                        <mxPoint x="50" y="10" as="sourcePoint"/>
                        <mxPoint x="50" y="150" as="targetPoint"/>
                    </mxGeometry>
                </mxCell>
                <mxCell id="201" value="" style="endArrow=none;html=1;entryX=0.673;entryY=0.033;entryDx=0;entryDy=0;entryPerimeter=0;exitX=0.68;exitY=0.973;exitDx=0;exitDy=0;exitPerimeter=0;" parent="198" source="199" target="199" edge="1">
                    <mxGeometry width="50" height="50" relative="1" as="geometry">
                        <mxPoint x="90" y="110" as="sourcePoint"/>
                        <mxPoint x="140" y="60" as="targetPoint"/>
                    </mxGeometry>
                </mxCell>
                <mxCell id="202" value="" style="endArrow=none;html=1;exitX=0;exitY=0.5;exitDx=0;exitDy=0;" parent="198" source="199" edge="1">
                    <mxGeometry width="50" height="50" relative="1" as="geometry">
                        <mxPoint x="60" y="100" as="sourcePoint"/>
                        <mxPoint x="50" y="75" as="targetPoint"/>
                    </mxGeometry>
                </mxCell>
                <mxCell id="203" value="" style="endArrow=none;html=1;exitX=1;exitY=0.5;exitDx=0;exitDy=0;" parent="198" source="199" edge="1">
                    <mxGeometry width="50" height="50" relative="1" as="geometry">
                        <mxPoint x="170" y="260" as="sourcePoint"/>
                        <mxPoint x="110" y="75" as="targetPoint"/>
                    </mxGeometry>
                </mxCell>
                <mxCell id="204" value="Desarrollo&lt;br&gt;interfaces" style="text;html=1;strokeColor=none;fillColor=none;align=center;verticalAlign=middle;whiteSpace=wrap;rounded=0;" parent="198" vertex="1">
                    <mxGeometry x="50" y="10" width="60" height="30" as="geometry"/>
                </mxCell>
                <mxCell id="205" value="5" style="text;html=1;strokeColor=none;fillColor=none;align=center;verticalAlign=middle;whiteSpace=wrap;rounded=0;" parent="198" vertex="1">
                    <mxGeometry x="50" y="100" width="60" height="30" as="geometry"/>
                </mxCell>
                <mxCell id="206" value="13" style="text;html=1;strokeColor=none;fillColor=none;align=center;verticalAlign=middle;whiteSpace=wrap;rounded=0;" parent="198" vertex="1">
                    <mxGeometry y="40" width="60" height="30" as="geometry"/>
                </mxCell>
                <mxCell id="207" value="15" style="text;html=1;strokeColor=none;fillColor=none;align=center;verticalAlign=middle;whiteSpace=wrap;rounded=0;" parent="198" vertex="1">
                    <mxGeometry y="90" width="60" height="30" as="geometry"/>
                </mxCell>
                <mxCell id="208" value="18" style="text;html=1;strokeColor=none;fillColor=none;align=center;verticalAlign=middle;whiteSpace=wrap;rounded=0;" parent="198" vertex="1">
                    <mxGeometry x="100" y="40" width="60" height="30" as="geometry"/>
                </mxCell>
                <mxCell id="209" value="20" style="text;html=1;strokeColor=none;fillColor=none;align=center;verticalAlign=middle;whiteSpace=wrap;rounded=0;" parent="198" vertex="1">
                    <mxGeometry x="100" y="90" width="60" height="30" as="geometry"/>
                </mxCell>
                <mxCell id="210" value="" style="group" parent="1" connectable="0" vertex="1">
                    <mxGeometry x="2510" y="830" width="160" height="150" as="geometry"/>
                </mxCell>
                <mxCell id="211" value="" style="ellipse;whiteSpace=wrap;html=1;aspect=fixed;" parent="210" vertex="1">
                    <mxGeometry x="10" width="150" height="150" as="geometry"/>
                </mxCell>
                <mxCell id="212" value="" style="endArrow=none;html=1;entryX=0.267;entryY=0.953;entryDx=0;entryDy=0;entryPerimeter=0;exitX=0.267;exitY=0.033;exitDx=0;exitDy=0;exitPerimeter=0;" parent="210" source="211" target="211" edge="1">
                    <mxGeometry width="50" height="50" relative="1" as="geometry">
                        <mxPoint x="50" y="10" as="sourcePoint"/>
                        <mxPoint x="50" y="150" as="targetPoint"/>
                    </mxGeometry>
                </mxCell>
                <mxCell id="213" value="" style="endArrow=none;html=1;entryX=0.673;entryY=0.033;entryDx=0;entryDy=0;entryPerimeter=0;exitX=0.68;exitY=0.973;exitDx=0;exitDy=0;exitPerimeter=0;" parent="210" source="211" target="211" edge="1">
                    <mxGeometry width="50" height="50" relative="1" as="geometry">
                        <mxPoint x="90" y="110" as="sourcePoint"/>
                        <mxPoint x="140" y="60" as="targetPoint"/>
                    </mxGeometry>
                </mxCell>
                <mxCell id="214" value="" style="endArrow=none;html=1;exitX=0;exitY=0.5;exitDx=0;exitDy=0;" parent="210" source="211" edge="1">
                    <mxGeometry width="50" height="50" relative="1" as="geometry">
                        <mxPoint x="60" y="100" as="sourcePoint"/>
                        <mxPoint x="50" y="75" as="targetPoint"/>
                    </mxGeometry>
                </mxCell>
                <mxCell id="215" value="" style="endArrow=none;html=1;exitX=1;exitY=0.5;exitDx=0;exitDy=0;" parent="210" source="211" edge="1">
                    <mxGeometry width="50" height="50" relative="1" as="geometry">
                        <mxPoint x="170" y="260" as="sourcePoint"/>
                        <mxPoint x="110" y="75" as="targetPoint"/>
                    </mxGeometry>
                </mxCell>
                <mxCell id="216" value="Desarrollo de&lt;br&gt;funcionalidades" style="text;html=1;strokeColor=none;fillColor=none;align=center;verticalAlign=middle;whiteSpace=wrap;rounded=0;" parent="210" vertex="1">
                    <mxGeometry x="50" y="10" width="60" height="30" as="geometry"/>
                </mxCell>
                <mxCell id="217" value="10" style="text;html=1;strokeColor=none;fillColor=none;align=center;verticalAlign=middle;whiteSpace=wrap;rounded=0;" parent="210" vertex="1">
                    <mxGeometry x="50" y="100" width="60" height="30" as="geometry"/>
                </mxCell>
                <mxCell id="218" value="23" style="text;html=1;strokeColor=none;fillColor=none;align=center;verticalAlign=middle;whiteSpace=wrap;rounded=0;" parent="210" vertex="1">
                    <mxGeometry y="40" width="60" height="30" as="geometry"/>
                </mxCell>
                <mxCell id="219" value="23" style="text;html=1;strokeColor=none;fillColor=none;align=center;verticalAlign=middle;whiteSpace=wrap;rounded=0;" parent="210" vertex="1">
                    <mxGeometry y="90" width="60" height="30" as="geometry"/>
                </mxCell>
                <mxCell id="220" value="33" style="text;html=1;strokeColor=none;fillColor=none;align=center;verticalAlign=middle;whiteSpace=wrap;rounded=0;" parent="210" vertex="1">
                    <mxGeometry x="100" y="40" width="60" height="30" as="geometry"/>
                </mxCell>
                <mxCell id="221" value="33" style="text;html=1;strokeColor=none;fillColor=none;align=center;verticalAlign=middle;whiteSpace=wrap;rounded=0;" parent="210" vertex="1">
                    <mxGeometry x="100" y="90" width="60" height="30" as="geometry"/>
                </mxCell>
                <mxCell id="222" value="" style="group" parent="1" connectable="0" vertex="1">
                    <mxGeometry x="2220" y="820" width="160" height="150" as="geometry"/>
                </mxCell>
                <mxCell id="223" value="" style="ellipse;whiteSpace=wrap;html=1;aspect=fixed;" parent="222" vertex="1">
                    <mxGeometry x="10" width="150" height="150" as="geometry"/>
                </mxCell>
                <mxCell id="224" value="" style="endArrow=none;html=1;entryX=0.267;entryY=0.953;entryDx=0;entryDy=0;entryPerimeter=0;exitX=0.267;exitY=0.033;exitDx=0;exitDy=0;exitPerimeter=0;" parent="222" source="223" target="223" edge="1">
                    <mxGeometry width="50" height="50" relative="1" as="geometry">
                        <mxPoint x="50" y="10" as="sourcePoint"/>
                        <mxPoint x="50" y="150" as="targetPoint"/>
                    </mxGeometry>
                </mxCell>
                <mxCell id="225" value="" style="endArrow=none;html=1;entryX=0.673;entryY=0.033;entryDx=0;entryDy=0;entryPerimeter=0;exitX=0.68;exitY=0.973;exitDx=0;exitDy=0;exitPerimeter=0;" parent="222" source="223" target="223" edge="1">
                    <mxGeometry width="50" height="50" relative="1" as="geometry">
                        <mxPoint x="90" y="110" as="sourcePoint"/>
                        <mxPoint x="140" y="60" as="targetPoint"/>
                    </mxGeometry>
                </mxCell>
                <mxCell id="226" value="" style="endArrow=none;html=1;exitX=0;exitY=0.5;exitDx=0;exitDy=0;" parent="222" source="223" edge="1">
                    <mxGeometry width="50" height="50" relative="1" as="geometry">
                        <mxPoint x="60" y="100" as="sourcePoint"/>
                        <mxPoint x="50" y="75" as="targetPoint"/>
                    </mxGeometry>
                </mxCell>
                <mxCell id="227" value="" style="endArrow=none;html=1;exitX=1;exitY=0.5;exitDx=0;exitDy=0;" parent="222" source="223" edge="1">
                    <mxGeometry width="50" height="50" relative="1" as="geometry">
                        <mxPoint x="170" y="260" as="sourcePoint"/>
                        <mxPoint x="110" y="75" as="targetPoint"/>
                    </mxGeometry>
                </mxCell>
                <mxCell id="228" value="ConexiÃ³n servidor" style="text;html=1;strokeColor=none;fillColor=none;align=center;verticalAlign=middle;whiteSpace=wrap;rounded=0;" parent="222" vertex="1">
                    <mxGeometry x="50" y="10" width="60" height="30" as="geometry"/>
                </mxCell>
                <mxCell id="229" value="3" style="text;html=1;strokeColor=none;fillColor=none;align=center;verticalAlign=middle;whiteSpace=wrap;rounded=0;" parent="222" vertex="1">
                    <mxGeometry x="50" y="100" width="60" height="30" as="geometry"/>
                </mxCell>
                <mxCell id="230" value="20" style="text;html=1;strokeColor=none;fillColor=none;align=center;verticalAlign=middle;whiteSpace=wrap;rounded=0;" parent="222" vertex="1">
                    <mxGeometry y="40" width="60" height="30" as="geometry"/>
                </mxCell>
                <mxCell id="231" value="20" style="text;html=1;strokeColor=none;fillColor=none;align=center;verticalAlign=middle;whiteSpace=wrap;rounded=0;" parent="222" vertex="1">
                    <mxGeometry y="90" width="60" height="30" as="geometry"/>
                </mxCell>
                <mxCell id="232" value="23" style="text;html=1;strokeColor=none;fillColor=none;align=center;verticalAlign=middle;whiteSpace=wrap;rounded=0;" parent="222" vertex="1">
                    <mxGeometry x="100" y="40" width="60" height="30" as="geometry"/>
                </mxCell>
                <mxCell id="233" value="23" style="text;html=1;strokeColor=none;fillColor=none;align=center;verticalAlign=middle;whiteSpace=wrap;rounded=0;" parent="222" vertex="1">
                    <mxGeometry x="100" y="90" width="60" height="30" as="geometry"/>
                </mxCell>
                <mxCell id="234" value="" style="group" parent="1" connectable="0" vertex="1">
                    <mxGeometry x="1710" y="740" width="160" height="150" as="geometry"/>
                </mxCell>
                <mxCell id="235" value="" style="ellipse;whiteSpace=wrap;html=1;aspect=fixed;" parent="234" vertex="1">
                    <mxGeometry x="10" width="150" height="150" as="geometry"/>
                </mxCell>
                <mxCell id="236" value="" style="endArrow=none;html=1;entryX=0.267;entryY=0.953;entryDx=0;entryDy=0;entryPerimeter=0;exitX=0.267;exitY=0.033;exitDx=0;exitDy=0;exitPerimeter=0;" parent="234" source="235" target="235" edge="1">
                    <mxGeometry width="50" height="50" relative="1" as="geometry">
                        <mxPoint x="50" y="10" as="sourcePoint"/>
                        <mxPoint x="50" y="150" as="targetPoint"/>
                    </mxGeometry>
                </mxCell>
                <mxCell id="237" value="" style="endArrow=none;html=1;entryX=0.673;entryY=0.033;entryDx=0;entryDy=0;entryPerimeter=0;exitX=0.68;exitY=0.973;exitDx=0;exitDy=0;exitPerimeter=0;" parent="234" source="235" target="235" edge="1">
                    <mxGeometry width="50" height="50" relative="1" as="geometry">
                        <mxPoint x="90" y="110" as="sourcePoint"/>
                        <mxPoint x="140" y="60" as="targetPoint"/>
                    </mxGeometry>
                </mxCell>
                <mxCell id="238" value="" style="endArrow=none;html=1;exitX=0;exitY=0.5;exitDx=0;exitDy=0;" parent="234" source="235" edge="1">
                    <mxGeometry width="50" height="50" relative="1" as="geometry">
                        <mxPoint x="60" y="100" as="sourcePoint"/>
                        <mxPoint x="50" y="75" as="targetPoint"/>
                    </mxGeometry>
                </mxCell>
                <mxCell id="239" value="" style="endArrow=none;html=1;exitX=1;exitY=0.5;exitDx=0;exitDy=0;" parent="234" source="235" edge="1">
                    <mxGeometry width="50" height="50" relative="1" as="geometry">
                        <mxPoint x="170" y="260" as="sourcePoint"/>
                        <mxPoint x="110" y="75" as="targetPoint"/>
                    </mxGeometry>
                </mxCell>
                <mxCell id="240" value="Configurar&lt;br&gt;servidor" style="text;html=1;strokeColor=none;fillColor=none;align=center;verticalAlign=middle;whiteSpace=wrap;rounded=0;" parent="234" vertex="1">
                    <mxGeometry x="50" y="10" width="60" height="30" as="geometry"/>
                </mxCell>
                <mxCell id="241" value="3" style="text;html=1;strokeColor=none;fillColor=none;align=center;verticalAlign=middle;whiteSpace=wrap;rounded=0;" parent="234" vertex="1">
                    <mxGeometry x="50" y="100" width="60" height="30" as="geometry"/>
                </mxCell>
                <mxCell id="242" value="13" style="text;html=1;strokeColor=none;fillColor=none;align=center;verticalAlign=middle;whiteSpace=wrap;rounded=0;" parent="234" vertex="1">
                    <mxGeometry y="40" width="60" height="30" as="geometry"/>
                </mxCell>
                <mxCell id="243" value="15" style="text;html=1;strokeColor=none;fillColor=none;align=center;verticalAlign=middle;whiteSpace=wrap;rounded=0;" parent="234" vertex="1">
                    <mxGeometry y="90" width="60" height="30" as="geometry"/>
                </mxCell>
                <mxCell id="244" value="16" style="text;html=1;strokeColor=none;fillColor=none;align=center;verticalAlign=middle;whiteSpace=wrap;rounded=0;" parent="234" vertex="1">
                    <mxGeometry x="100" y="40" width="60" height="30" as="geometry"/>
                </mxCell>
                <mxCell id="245" value="18" style="text;html=1;strokeColor=none;fillColor=none;align=center;verticalAlign=middle;whiteSpace=wrap;rounded=0;" parent="234" vertex="1">
                    <mxGeometry x="100" y="90" width="60" height="30" as="geometry"/>
                </mxCell>
                <mxCell id="246" value="" style="group" parent="1" connectable="0" vertex="1">
                    <mxGeometry x="1710" y="510" width="160" height="150" as="geometry"/>
                </mxCell>
                <mxCell id="247" value="" style="ellipse;whiteSpace=wrap;html=1;aspect=fixed;" parent="246" vertex="1">
                    <mxGeometry x="10" width="150" height="150" as="geometry"/>
                </mxCell>
                <mxCell id="248" value="" style="endArrow=none;html=1;entryX=0.267;entryY=0.953;entryDx=0;entryDy=0;entryPerimeter=0;exitX=0.267;exitY=0.033;exitDx=0;exitDy=0;exitPerimeter=0;" parent="246" source="247" target="247" edge="1">
                    <mxGeometry width="50" height="50" relative="1" as="geometry">
                        <mxPoint x="50" y="10" as="sourcePoint"/>
                        <mxPoint x="50" y="150" as="targetPoint"/>
                    </mxGeometry>
                </mxCell>
                <mxCell id="249" value="" style="endArrow=none;html=1;entryX=0.673;entryY=0.033;entryDx=0;entryDy=0;entryPerimeter=0;exitX=0.68;exitY=0.973;exitDx=0;exitDy=0;exitPerimeter=0;" parent="246" source="247" target="247" edge="1">
                    <mxGeometry width="50" height="50" relative="1" as="geometry">
                        <mxPoint x="90" y="110" as="sourcePoint"/>
                        <mxPoint x="140" y="60" as="targetPoint"/>
                    </mxGeometry>
                </mxCell>
                <mxCell id="250" value="" style="endArrow=none;html=1;exitX=0;exitY=0.5;exitDx=0;exitDy=0;" parent="246" source="247" edge="1">
                    <mxGeometry width="50" height="50" relative="1" as="geometry">
                        <mxPoint x="60" y="100" as="sourcePoint"/>
                        <mxPoint x="50" y="75" as="targetPoint"/>
                    </mxGeometry>
                </mxCell>
                <mxCell id="251" value="" style="endArrow=none;html=1;exitX=1;exitY=0.5;exitDx=0;exitDy=0;" parent="246" source="247" edge="1">
                    <mxGeometry width="50" height="50" relative="1" as="geometry">
                        <mxPoint x="170" y="260" as="sourcePoint"/>
                        <mxPoint x="110" y="75" as="targetPoint"/>
                    </mxGeometry>
                </mxCell>
                <mxCell id="252" value="Configurar&lt;br&gt;servicios&lt;br&gt;externos" style="text;html=1;strokeColor=none;fillColor=none;align=center;verticalAlign=middle;whiteSpace=wrap;rounded=0;" parent="246" vertex="1">
                    <mxGeometry x="50" y="10" width="60" height="30" as="geometry"/>
                </mxCell>
                <mxCell id="253" value="4" style="text;html=1;strokeColor=none;fillColor=none;align=center;verticalAlign=middle;whiteSpace=wrap;rounded=0;" parent="246" vertex="1">
                    <mxGeometry x="50" y="100" width="60" height="30" as="geometry"/>
                </mxCell>
                <mxCell id="254" value="13" style="text;html=1;strokeColor=none;fillColor=none;align=center;verticalAlign=middle;whiteSpace=wrap;rounded=0;" parent="246" vertex="1">
                    <mxGeometry y="40" width="60" height="30" as="geometry"/>
                </mxCell>
                <mxCell id="255" value="14" style="text;html=1;strokeColor=none;fillColor=none;align=center;verticalAlign=middle;whiteSpace=wrap;rounded=0;" parent="246" vertex="1">
                    <mxGeometry y="90" width="60" height="30" as="geometry"/>
                </mxCell>
                <mxCell id="256" value="17" style="text;html=1;strokeColor=none;fillColor=none;align=center;verticalAlign=middle;whiteSpace=wrap;rounded=0;" parent="246" vertex="1">
                    <mxGeometry x="100" y="40" width="60" height="30" as="geometry"/>
                </mxCell>
                <mxCell id="257" value="18" style="text;html=1;strokeColor=none;fillColor=none;align=center;verticalAlign=middle;whiteSpace=wrap;rounded=0;" parent="246" vertex="1">
                    <mxGeometry x="100" y="90" width="60" height="30" as="geometry"/>
                </mxCell>
                <mxCell id="258" value="" style="group" parent="1" connectable="0" vertex="1">
                    <mxGeometry x="1710" y="310" width="160" height="150" as="geometry"/>
                </mxCell>
                <mxCell id="259" value="" style="ellipse;whiteSpace=wrap;html=1;aspect=fixed;" parent="258" vertex="1">
                    <mxGeometry x="10" width="150" height="150" as="geometry"/>
                </mxCell>
                <mxCell id="260" value="" style="endArrow=none;html=1;entryX=0.267;entryY=0.953;entryDx=0;entryDy=0;entryPerimeter=0;exitX=0.267;exitY=0.033;exitDx=0;exitDy=0;exitPerimeter=0;" parent="258" source="259" target="259" edge="1">
                    <mxGeometry width="50" height="50" relative="1" as="geometry">
                        <mxPoint x="50" y="10" as="sourcePoint"/>
                        <mxPoint x="50" y="150" as="targetPoint"/>
                    </mxGeometry>
                </mxCell>
                <mxCell id="261" value="" style="endArrow=none;html=1;entryX=0.673;entryY=0.033;entryDx=0;entryDy=0;entryPerimeter=0;exitX=0.68;exitY=0.973;exitDx=0;exitDy=0;exitPerimeter=0;" parent="258" source="259" target="259" edge="1">
                    <mxGeometry width="50" height="50" relative="1" as="geometry">
                        <mxPoint x="90" y="110" as="sourcePoint"/>
                        <mxPoint x="140" y="60" as="targetPoint"/>
                    </mxGeometry>
                </mxCell>
                <mxCell id="262" value="" style="endArrow=none;html=1;exitX=0;exitY=0.5;exitDx=0;exitDy=0;" parent="258" source="259" edge="1">
                    <mxGeometry width="50" height="50" relative="1" as="geometry">
                        <mxPoint x="60" y="100" as="sourcePoint"/>
                        <mxPoint x="50" y="75" as="targetPoint"/>
                    </mxGeometry>
                </mxCell>
                <mxCell id="263" value="" style="endArrow=none;html=1;exitX=1;exitY=0.5;exitDx=0;exitDy=0;" parent="258" source="259" edge="1">
                    <mxGeometry width="50" height="50" relative="1" as="geometry">
                        <mxPoint x="170" y="260" as="sourcePoint"/>
                        <mxPoint x="110" y="75" as="targetPoint"/>
                    </mxGeometry>
                </mxCell>
                <mxCell id="264" value="Desarrollar&lt;br&gt;API" style="text;html=1;strokeColor=none;fillColor=none;align=center;verticalAlign=middle;whiteSpace=wrap;rounded=0;" parent="258" vertex="1">
                    <mxGeometry x="50" y="10" width="60" height="30" as="geometry"/>
                </mxCell>
                <mxCell id="265" value="5" style="text;html=1;strokeColor=none;fillColor=none;align=center;verticalAlign=middle;whiteSpace=wrap;rounded=0;" parent="258" vertex="1">
                    <mxGeometry x="50" y="100" width="60" height="30" as="geometry"/>
                </mxCell>
                <mxCell id="266" value="13" style="text;html=1;strokeColor=none;fillColor=none;align=center;verticalAlign=middle;whiteSpace=wrap;rounded=0;" parent="258" vertex="1">
                    <mxGeometry y="40" width="60" height="30" as="geometry"/>
                </mxCell>
                <mxCell id="267" value="13" style="text;html=1;strokeColor=none;fillColor=none;align=center;verticalAlign=middle;whiteSpace=wrap;rounded=0;" parent="258" vertex="1">
                    <mxGeometry y="90" width="60" height="30" as="geometry"/>
                </mxCell>
                <mxCell id="268" value="18" style="text;html=1;strokeColor=none;fillColor=none;align=center;verticalAlign=middle;whiteSpace=wrap;rounded=0;" parent="258" vertex="1">
                    <mxGeometry x="100" y="40" width="60" height="30" as="geometry"/>
                </mxCell>
                <mxCell id="269" value="18" style="text;html=1;strokeColor=none;fillColor=none;align=center;verticalAlign=middle;whiteSpace=wrap;rounded=0;" parent="258" vertex="1">
                    <mxGeometry x="100" y="90" width="60" height="30" as="geometry"/>
                </mxCell>
                <mxCell id="270" value="" style="group" parent="1" connectable="0" vertex="1">
                    <mxGeometry x="1710" y="100" width="160" height="150" as="geometry"/>
                </mxCell>
                <mxCell id="271" value="" style="ellipse;whiteSpace=wrap;html=1;aspect=fixed;" parent="270" vertex="1">
                    <mxGeometry x="10" width="150" height="150" as="geometry"/>
                </mxCell>
                <mxCell id="272" value="" style="endArrow=none;html=1;entryX=0.267;entryY=0.953;entryDx=0;entryDy=0;entryPerimeter=0;exitX=0.267;exitY=0.033;exitDx=0;exitDy=0;exitPerimeter=0;" parent="270" source="271" target="271" edge="1">
                    <mxGeometry width="50" height="50" relative="1" as="geometry">
                        <mxPoint x="50" y="10" as="sourcePoint"/>
                        <mxPoint x="50" y="150" as="targetPoint"/>
                    </mxGeometry>
                </mxCell>
                <mxCell id="273" value="" style="endArrow=none;html=1;entryX=0.673;entryY=0.033;entryDx=0;entryDy=0;entryPerimeter=0;exitX=0.68;exitY=0.973;exitDx=0;exitDy=0;exitPerimeter=0;" parent="270" source="271" target="271" edge="1">
                    <mxGeometry width="50" height="50" relative="1" as="geometry">
                        <mxPoint x="90" y="110" as="sourcePoint"/>
                        <mxPoint x="140" y="60" as="targetPoint"/>
                    </mxGeometry>
                </mxCell>
                <mxCell id="274" value="" style="endArrow=none;html=1;exitX=0;exitY=0.5;exitDx=0;exitDy=0;" parent="270" source="271" edge="1">
                    <mxGeometry width="50" height="50" relative="1" as="geometry">
                        <mxPoint x="60" y="100" as="sourcePoint"/>
                        <mxPoint x="50" y="75" as="targetPoint"/>
                    </mxGeometry>
                </mxCell>
                <mxCell id="275" value="" style="endArrow=none;html=1;exitX=1;exitY=0.5;exitDx=0;exitDy=0;" parent="270" source="271" edge="1">
                    <mxGeometry width="50" height="50" relative="1" as="geometry">
                        <mxPoint x="170" y="260" as="sourcePoint"/>
                        <mxPoint x="110" y="75" as="targetPoint"/>
                    </mxGeometry>
                </mxCell>
                <mxCell id="276" value="Desarrollar&lt;br&gt;BD" style="text;html=1;strokeColor=none;fillColor=none;align=center;verticalAlign=middle;whiteSpace=wrap;rounded=0;" parent="270" vertex="1">
                    <mxGeometry x="50" y="10" width="60" height="30" as="geometry"/>
                </mxCell>
                <mxCell id="277" value="2" style="text;html=1;strokeColor=none;fillColor=none;align=center;verticalAlign=middle;whiteSpace=wrap;rounded=0;" parent="270" vertex="1">
                    <mxGeometry x="50" y="100" width="60" height="30" as="geometry"/>
                </mxCell>
                <mxCell id="278" value="13" style="text;html=1;strokeColor=none;fillColor=none;align=center;verticalAlign=middle;whiteSpace=wrap;rounded=0;" parent="270" vertex="1">
                    <mxGeometry y="40" width="60" height="30" as="geometry"/>
                </mxCell>
                <mxCell id="279" value="16" style="text;html=1;strokeColor=none;fillColor=none;align=center;verticalAlign=middle;whiteSpace=wrap;rounded=0;" parent="270" vertex="1">
                    <mxGeometry y="90" width="60" height="30" as="geometry"/>
                </mxCell>
                <mxCell id="280" value="15" style="text;html=1;strokeColor=none;fillColor=none;align=center;verticalAlign=middle;whiteSpace=wrap;rounded=0;" parent="270" vertex="1">
                    <mxGeometry x="100" y="40" width="60" height="30" as="geometry"/>
                </mxCell>
                <mxCell id="281" value="18" style="text;html=1;strokeColor=none;fillColor=none;align=center;verticalAlign=middle;whiteSpace=wrap;rounded=0;" parent="270" vertex="1">
                    <mxGeometry x="100" y="90" width="60" height="30" as="geometry"/>
                </mxCell>
                <mxCell id="282" value="" style="group" parent="1" connectable="0" vertex="1">
                    <mxGeometry x="2008" y="470" width="160" height="150" as="geometry"/>
                </mxCell>
                <mxCell id="283" value="" style="ellipse;whiteSpace=wrap;html=1;aspect=fixed;" parent="282" vertex="1">
                    <mxGeometry x="10" width="150" height="150" as="geometry"/>
                </mxCell>
                <mxCell id="284" value="" style="endArrow=none;html=1;entryX=0.267;entryY=0.953;entryDx=0;entryDy=0;entryPerimeter=0;exitX=0.267;exitY=0.033;exitDx=0;exitDy=0;exitPerimeter=0;" parent="282" source="283" target="283" edge="1">
                    <mxGeometry width="50" height="50" relative="1" as="geometry">
                        <mxPoint x="50" y="10" as="sourcePoint"/>
                        <mxPoint x="50" y="150" as="targetPoint"/>
                    </mxGeometry>
                </mxCell>
                <mxCell id="285" value="" style="endArrow=none;html=1;entryX=0.673;entryY=0.033;entryDx=0;entryDy=0;entryPerimeter=0;exitX=0.68;exitY=0.973;exitDx=0;exitDy=0;exitPerimeter=0;" parent="282" source="283" target="283" edge="1">
                    <mxGeometry width="50" height="50" relative="1" as="geometry">
                        <mxPoint x="90" y="110" as="sourcePoint"/>
                        <mxPoint x="140" y="60" as="targetPoint"/>
                    </mxGeometry>
                </mxCell>
                <mxCell id="286" value="" style="endArrow=none;html=1;exitX=0;exitY=0.5;exitDx=0;exitDy=0;" parent="282" source="283" edge="1">
                    <mxGeometry width="50" height="50" relative="1" as="geometry">
                        <mxPoint x="60" y="100" as="sourcePoint"/>
                        <mxPoint x="50" y="75" as="targetPoint"/>
                    </mxGeometry>
                </mxCell>
                <mxCell id="287" value="" style="endArrow=none;html=1;exitX=1;exitY=0.5;exitDx=0;exitDy=0;" parent="282" source="283" edge="1">
                    <mxGeometry width="50" height="50" relative="1" as="geometry">
                        <mxPoint x="170" y="260" as="sourcePoint"/>
                        <mxPoint x="110" y="75" as="targetPoint"/>
                    </mxGeometry>
                </mxCell>
                <mxCell id="288" value="IntegraciÃ³n&lt;br&gt;del servidor" style="text;html=1;strokeColor=none;fillColor=none;align=center;verticalAlign=middle;whiteSpace=wrap;rounded=0;" parent="282" vertex="1">
                    <mxGeometry x="50" y="10" width="60" height="30" as="geometry"/>
                </mxCell>
                <mxCell id="289" value="2" style="text;html=1;strokeColor=none;fillColor=none;align=center;verticalAlign=middle;whiteSpace=wrap;rounded=0;" parent="282" vertex="1">
                    <mxGeometry x="50" y="100" width="60" height="30" as="geometry"/>
                </mxCell>
                <mxCell id="290" value="18" style="text;html=1;strokeColor=none;fillColor=none;align=center;verticalAlign=middle;whiteSpace=wrap;rounded=0;" parent="282" vertex="1">
                    <mxGeometry y="40" width="60" height="30" as="geometry"/>
                </mxCell>
                <mxCell id="291" value="18" style="text;html=1;strokeColor=none;fillColor=none;align=center;verticalAlign=middle;whiteSpace=wrap;rounded=0;" parent="282" vertex="1">
                    <mxGeometry y="90" width="60" height="30" as="geometry"/>
                </mxCell>
                <mxCell id="292" value="20" style="text;html=1;strokeColor=none;fillColor=none;align=center;verticalAlign=middle;whiteSpace=wrap;rounded=0;" parent="282" vertex="1">
                    <mxGeometry x="100" y="40" width="60" height="30" as="geometry"/>
                </mxCell>
                <mxCell id="293" value="20" style="text;html=1;strokeColor=none;fillColor=none;align=center;verticalAlign=middle;whiteSpace=wrap;rounded=0;" parent="282" vertex="1">
                    <mxGeometry x="100" y="90" width="60" height="30" as="geometry"/>
                </mxCell>
                <mxCell id="294" value="" style="endArrow=classic;html=1;fontSize=10;exitX=0.767;exitY=0.087;exitDx=0;exitDy=0;exitPerimeter=0;entryX=0.5;entryY=1;entryDx=0;entryDy=0;strokeWidth=6;" parent="1" source="29" target="73" edge="1">
                    <mxGeometry width="50" height="50" relative="1" as="geometry">
                        <mxPoint x="140" y="420" as="sourcePoint"/>
                        <mxPoint x="190" y="370" as="targetPoint"/>
                    </mxGeometry>
                </mxCell>
                <mxCell id="295" value="" style="endArrow=classic;html=1;fontSize=10;exitX=0.767;exitY=0.087;exitDx=0;exitDy=0;exitPerimeter=0;fillColor=#e51400;strokeColor=#B20000;strokeWidth=9;" parent="1" target="25" edge="1">
                    <mxGeometry width="50" height="50" relative="1" as="geometry">
                        <mxPoint x="185.04999999999995" y="533.0500000000002" as="sourcePoint"/>
                        <mxPoint x="300" y="180" as="targetPoint"/>
                    </mxGeometry>
                </mxCell>
                <mxCell id="296" value="" style="endArrow=classic;html=1;fontSize=10;exitX=1;exitY=1;exitDx=0;exitDy=0;entryX=0.25;entryY=1;entryDx=0;entryDy=0;strokeWidth=6;" parent="1" source="38" target="48" edge="1">
                    <mxGeometry width="50" height="50" relative="1" as="geometry">
                        <mxPoint x="195.04999999999995" y="543.0500000000002" as="sourcePoint"/>
                        <mxPoint x="291.15838247683246" y="380" as="targetPoint"/>
                    </mxGeometry>
                </mxCell>
                <mxCell id="297" value="" style="endArrow=classic;html=1;fontSize=10;exitX=0.9;exitY=0.793;exitDx=0;exitDy=0;entryX=0.1;entryY=0.207;entryDx=0;entryDy=0;exitPerimeter=0;entryPerimeter=0;strokeWidth=6;" parent="1" source="29" target="53" edge="1">
                    <mxGeometry width="50" height="50" relative="1" as="geometry">
                        <mxPoint x="220" y="590" as="sourcePoint"/>
                        <mxPoint x="285" y="590" as="targetPoint"/>
                    </mxGeometry>
                </mxCell>
                <mxCell id="299" value="" style="endArrow=classic;html=1;fontSize=10;exitX=0.653;exitY=0.973;exitDx=0;exitDy=0;entryX=0;entryY=0;entryDx=0;entryDy=0;exitPerimeter=0;strokeWidth=6;" parent="1" source="29" target="77" edge="1">
                    <mxGeometry width="50" height="50" relative="1" as="geometry">
                        <mxPoint x="205" y="638.9499999999998" as="sourcePoint"/>
                        <mxPoint x="295" y="791.0500000000002" as="targetPoint"/>
                    </mxGeometry>
                </mxCell>
                <mxCell id="300" value="" style="endArrow=classic;html=1;fontSize=10;exitX=1;exitY=0.5;exitDx=0;exitDy=0;entryX=0;entryY=0;entryDx=0;entryDy=0;strokeWidth=6;" parent="1" source="65" target="89" edge="1">
                    <mxGeometry width="50" height="50" relative="1" as="geometry">
                        <mxPoint x="185.04999999999995" y="533.0500000000002" as="sourcePoint"/>
                        <mxPoint x="300" y="180" as="targetPoint"/>
                    </mxGeometry>
                </mxCell>
                <mxCell id="301" value="" style="endArrow=classic;html=1;fontSize=10;exitX=1;exitY=1;exitDx=0;exitDy=0;entryX=0.25;entryY=1;entryDx=0;entryDy=0;fillColor=#e51400;strokeColor=#B20000;strokeWidth=10;" parent="1" source="26" target="96" edge="1">
                    <mxGeometry width="50" height="50" relative="1" as="geometry">
                        <mxPoint x="430" y="135" as="sourcePoint"/>
                        <mxPoint x="571.9669914110091" y="551.9669914110091" as="targetPoint"/>
                    </mxGeometry>
                </mxCell>
                <mxCell id="302" value="" style="endArrow=classic;html=1;fontSize=10;exitX=1;exitY=0.5;exitDx=0;exitDy=0;entryX=0.25;entryY=1;entryDx=0;entryDy=0;strokeWidth=6;" parent="1" source="41" target="96" edge="1">
                    <mxGeometry width="50" height="50" relative="1" as="geometry">
                        <mxPoint x="430" y="330" as="sourcePoint"/>
                        <mxPoint x="555" y="600" as="targetPoint"/>
                    </mxGeometry>
                </mxCell>
                <mxCell id="303" value="" style="endArrow=classic;html=1;fontSize=10;exitX=1;exitY=1;exitDx=0;exitDy=0;entryX=0.4;entryY=0.967;entryDx=0;entryDy=0;entryPerimeter=0;strokeWidth=6;" parent="1" source="62" target="97" edge="1">
                    <mxGeometry width="50" height="50" relative="1" as="geometry">
                        <mxPoint x="430" y="595" as="sourcePoint"/>
                        <mxPoint x="555" y="600" as="targetPoint"/>
                    </mxGeometry>
                </mxCell>
                <mxCell id="304" value="" style="endArrow=classic;html=1;fontSize=10;exitX=1;exitY=1;exitDx=0;exitDy=0;strokeWidth=6;" parent="1" source="86" target="89" edge="1">
                    <mxGeometry width="50" height="50" relative="1" as="geometry">
                        <mxPoint x="430" y="830" as="sourcePoint"/>
                        <mxPoint x="564" y="649.0100000000002" as="targetPoint"/>
                    </mxGeometry>
                </mxCell>
                <mxCell id="306" value="" style="endArrow=classic;html=1;fontSize=10;exitX=1;exitY=1;exitDx=0;exitDy=0;entryX=0.207;entryY=0.893;entryDx=0;entryDy=0;entryPerimeter=0;fillColor=#e51400;strokeColor=#B20000;strokeWidth=10;" parent="1" source="98" target="151" edge="1">
                    <mxGeometry width="50" height="50" relative="1" as="geometry">
                        <mxPoint x="430" y="135" as="sourcePoint"/>
                        <mxPoint x="571.9669914110091" y="551.9669914110091" as="targetPoint"/>
                    </mxGeometry>
                </mxCell>
                <mxCell id="307" value="" style="endArrow=classic;html=1;fontSize=10;exitX=1;exitY=0.5;exitDx=0;exitDy=0;entryX=0.15;entryY=1.133;entryDx=0;entryDy=0;entryPerimeter=0;strokeWidth=6;" parent="1" source="89" target="110" edge="1">
                    <mxGeometry width="50" height="50" relative="1" as="geometry">
                        <mxPoint x="700" y="600" as="sourcePoint"/>
                        <mxPoint x="771.05" y="403.9499999999998" as="targetPoint"/>
                    </mxGeometry>
                </mxCell>
                <mxCell id="308" value="" style="endArrow=classic;html=1;fontSize=10;exitX=1.027;exitY=0.553;exitDx=0;exitDy=0;exitPerimeter=0;strokeWidth=6;" parent="1" source="89" target="139" edge="1">
                    <mxGeometry width="50" height="50" relative="1" as="geometry">
                        <mxPoint x="700" y="605" as="sourcePoint"/>
                        <mxPoint x="870" y="603.9899999999998" as="targetPoint"/>
                    </mxGeometry>
                </mxCell>
                <mxCell id="309" value="" style="endArrow=classic;html=1;fontSize=10;entryX=0;entryY=0.5;entryDx=0;entryDy=0;fillColor=#e51400;strokeColor=#B20000;strokeWidth=10;" parent="1" target="163" edge="1">
                    <mxGeometry width="50" height="50" relative="1" as="geometry">
                        <mxPoint x="880" y="335" as="sourcePoint"/>
                        <mxPoint x="771.05" y="403.9499999999998" as="targetPoint"/>
                    </mxGeometry>
                </mxCell>
                <mxCell id="310" value="" style="endArrow=classic;html=1;fontSize=10;entryX=0;entryY=0.5;entryDx=0;entryDy=0;exitX=1;exitY=1;exitDx=0;exitDy=0;fillColor=#e51400;strokeColor=#B20000;strokeWidth=10;" parent="1" source="172" target="175" edge="1">
                    <mxGeometry width="50" height="50" relative="1" as="geometry">
                        <mxPoint x="1121" y="380" as="sourcePoint"/>
                        <mxPoint x="1201" y="380" as="targetPoint"/>
                    </mxGeometry>
                </mxCell>
                <mxCell id="311" value="" style="endArrow=classic;html=1;fontSize=10;entryX=0.25;entryY=1;entryDx=0;entryDy=0;strokeWidth=6;" parent="1" target="122" edge="1">
                    <mxGeometry width="50" height="50" relative="1" as="geometry">
                        <mxPoint x="1010" y="595" as="sourcePoint"/>
                        <mxPoint x="1100" y="530" as="targetPoint"/>
                    </mxGeometry>
                </mxCell>
                <mxCell id="312" value="" style="endArrow=classic;html=1;fontSize=10;entryX=0;entryY=0.5;entryDx=0;entryDy=0;exitX=1;exitY=1;exitDx=0;exitDy=0;strokeWidth=6;" parent="1" source="148" target="127" edge="1">
                    <mxGeometry width="50" height="50" relative="1" as="geometry">
                        <mxPoint x="1024" y="745" as="sourcePoint"/>
                        <mxPoint x="1110" y="740" as="targetPoint"/>
                    </mxGeometry>
                </mxCell>
                <mxCell id="315" value="" style="endArrow=classic;html=1;fontSize=10;entryX=0.087;entryY=0.167;entryDx=0;entryDy=0;exitX=1;exitY=1;exitDx=0;exitDy=0;entryPerimeter=0;fillColor=#e51400;strokeColor=#B20000;strokeWidth=10;" parent="1" source="184" target="187" edge="1">
                    <mxGeometry width="50" height="50" relative="1" as="geometry">
                        <mxPoint x="1380" y="505" as="sourcePoint"/>
                        <mxPoint x="1460" y="500" as="targetPoint"/>
                    </mxGeometry>
                </mxCell>
                <mxCell id="316" value="" style="endArrow=classic;html=1;fontSize=10;entryX=0;entryY=0.5;entryDx=0;entryDy=0;exitX=1;exitY=0.5;exitDx=0;exitDy=0;strokeWidth=6;" parent="1" source="115" target="187" edge="1">
                    <mxGeometry width="50" height="50" relative="1" as="geometry">
                        <mxPoint x="1340" y="660" as="sourcePoint"/>
                        <mxPoint x="1463.0500000000002" y="905.0500000000002" as="targetPoint"/>
                    </mxGeometry>
                </mxCell>
                <mxCell id="317" value="" style="endArrow=classic;html=1;fontSize=10;entryX=0;entryY=1;entryDx=0;entryDy=0;exitX=1;exitY=1;exitDx=0;exitDy=0;strokeWidth=6;" parent="1" source="136" target="187" edge="1">
                    <mxGeometry width="50" height="50" relative="1" as="geometry">
                        <mxPoint x="1320" y="790" as="sourcePoint"/>
                        <mxPoint x="1529" y="810" as="targetPoint"/>
                    </mxGeometry>
                </mxCell>
                <mxCell id="318" value="" style="endArrow=classic;html=1;fontSize=10;entryX=0;entryY=0.5;entryDx=0;entryDy=0;exitX=1;exitY=0;exitDx=0;exitDy=0;strokeWidth=6;" parent="1" source="187" target="271" edge="1">
                    <mxGeometry width="50" height="50" relative="1" as="geometry">
                        <mxPoint x="1476.95" y="240" as="sourcePoint"/>
                        <mxPoint x="1600.0000000000002" y="485.04999999999995" as="targetPoint"/>
                    </mxGeometry>
                </mxCell>
                <mxCell id="319" value="" style="endArrow=classic;html=1;fontSize=10;entryX=0.148;entryY=1.093;entryDx=0;entryDy=0;exitX=1;exitY=1;exitDx=0;exitDy=0;entryPerimeter=0;fillColor=#e51400;strokeColor=#B20000;strokeWidth=10;" parent="1" source="196" target="266" edge="1">
                    <mxGeometry width="50" height="50" relative="1" as="geometry">
                        <mxPoint x="1588.0330085889832" y="571.9669914110168" as="sourcePoint"/>
                        <mxPoint x="1730.0000000000018" y="185" as="targetPoint"/>
                    </mxGeometry>
                </mxCell>
                <mxCell id="320" value="" style="endArrow=classic;html=1;fontSize=10;entryX=0.007;entryY=0.548;entryDx=0;entryDy=0;exitX=1;exitY=0.5;exitDx=0;exitDy=0;entryPerimeter=0;strokeWidth=6;" parent="1" source="187" target="247" edge="1">
                    <mxGeometry width="50" height="50" relative="1" as="geometry">
                        <mxPoint x="1560" y="877.21" as="sourcePoint"/>
                        <mxPoint x="1678.88" y="650" as="targetPoint"/>
                    </mxGeometry>
                </mxCell>
                <mxCell id="321" value="" style="endArrow=classic;html=1;fontSize=10;entryX=0;entryY=0.5;entryDx=0;entryDy=0;exitX=1;exitY=0;exitDx=0;exitDy=0;strokeWidth=6;" parent="1" source="197" target="235" edge="1">
                    <mxGeometry width="50" height="50" relative="1" as="geometry">
                        <mxPoint x="1609.9999999999977" y="762.8" as="sourcePoint"/>
                        <mxPoint x="1731.0499999999997" y="739.9999999999998" as="targetPoint"/>
                    </mxGeometry>
                </mxCell>
                <mxCell id="322" value="" style="endArrow=classic;html=1;fontSize=10;entryX=0.105;entryY=0.187;entryDx=0;entryDy=0;exitX=0.754;exitY=0.945;exitDx=0;exitDy=0;exitPerimeter=0;entryPerimeter=0;strokeWidth=6;" parent="1" source="187" target="199" edge="1">
                    <mxGeometry width="50" height="50" relative="1" as="geometry">
                        <mxPoint x="1534" y="795" as="sourcePoint"/>
                        <mxPoint x="1654.0000000000018" y="980" as="targetPoint"/>
                    </mxGeometry>
                </mxCell>
                <mxCell id="323" style="edgeStyle=none;html=1;exitX=1;exitY=0.5;exitDx=0;exitDy=0;entryX=0;entryY=0;entryDx=0;entryDy=0;fontSize=10;strokeWidth=6;" parent="1" source="271" target="283" edge="1">
                    <mxGeometry relative="1" as="geometry"/>
                </mxCell>
                <mxCell id="324" style="edgeStyle=none;html=1;exitX=1;exitY=1;exitDx=0;exitDy=0;entryX=0.25;entryY=0;entryDx=0;entryDy=0;fontSize=10;fillColor=#e51400;strokeColor=#B20000;strokeWidth=10;" parent="1" source="268" target="290" edge="1">
                    <mxGeometry relative="1" as="geometry"/>
                </mxCell>
                <mxCell id="325" style="edgeStyle=none;html=1;exitX=1;exitY=1;exitDx=0;exitDy=0;entryX=0.25;entryY=1;entryDx=0;entryDy=0;fontSize=10;strokeWidth=6;" parent="1" source="256" target="290" edge="1">
                    <mxGeometry relative="1" as="geometry"/>
                </mxCell>
                <mxCell id="326" style="edgeStyle=none;html=1;exitX=1;exitY=1;exitDx=0;exitDy=0;entryX=0;entryY=1;entryDx=0;entryDy=0;fontSize=10;strokeWidth=6;" parent="1" source="244" target="283" edge="1">
                    <mxGeometry relative="1" as="geometry"/>
                </mxCell>
                <mxCell id="327" style="edgeStyle=none;html=1;exitX=1;exitY=1;exitDx=0;exitDy=0;entryX=0;entryY=0.5;entryDx=0;entryDy=0;fontSize=10;strokeWidth=6;" parent="1" source="208" target="223" edge="1">
                    <mxGeometry relative="1" as="geometry"/>
                </mxCell>
                <mxCell id="328" style="edgeStyle=none;html=1;exitX=1;exitY=1;exitDx=0;exitDy=0;entryX=0;entryY=0;entryDx=0;entryDy=0;fontSize=10;fillColor=#e51400;strokeColor=#B20000;strokeWidth=10;" parent="1" source="292" target="223" edge="1">
                    <mxGeometry relative="1" as="geometry"/>
                </mxCell>
                <mxCell id="329" style="edgeStyle=none;html=1;exitX=1;exitY=0.5;exitDx=0;exitDy=0;entryX=0.25;entryY=1;entryDx=0;entryDy=0;fontSize=10;fillColor=#e51400;strokeColor=#B20000;strokeWidth=8;" parent="1" source="223" target="218" edge="1">
                    <mxGeometry relative="1" as="geometry"/>
                </mxCell>
                <mxCell id="330" value="" style="group" parent="1" connectable="0" vertex="1">
                    <mxGeometry x="2700" y="490" width="160" height="150" as="geometry"/>
                </mxCell>
                <mxCell id="331" value="" style="ellipse;whiteSpace=wrap;html=1;aspect=fixed;" parent="330" vertex="1">
                    <mxGeometry x="10" width="150" height="150" as="geometry"/>
                </mxCell>
                <mxCell id="332" value="" style="endArrow=none;html=1;entryX=0.267;entryY=0.953;entryDx=0;entryDy=0;entryPerimeter=0;exitX=0.267;exitY=0.033;exitDx=0;exitDy=0;exitPerimeter=0;" parent="330" source="331" target="331" edge="1">
                    <mxGeometry width="50" height="50" relative="1" as="geometry">
                        <mxPoint x="50" y="10" as="sourcePoint"/>
                        <mxPoint x="50" y="150" as="targetPoint"/>
                    </mxGeometry>
                </mxCell>
                <mxCell id="333" value="" style="endArrow=none;html=1;entryX=0.673;entryY=0.033;entryDx=0;entryDy=0;entryPerimeter=0;exitX=0.68;exitY=0.973;exitDx=0;exitDy=0;exitPerimeter=0;" parent="330" source="331" target="331" edge="1">
                    <mxGeometry width="50" height="50" relative="1" as="geometry">
                        <mxPoint x="90" y="110" as="sourcePoint"/>
                        <mxPoint x="140" y="60" as="targetPoint"/>
                    </mxGeometry>
                </mxCell>
                <mxCell id="334" value="" style="endArrow=none;html=1;exitX=0;exitY=0.5;exitDx=0;exitDy=0;" parent="330" source="331" edge="1">
                    <mxGeometry width="50" height="50" relative="1" as="geometry">
                        <mxPoint x="60" y="100" as="sourcePoint"/>
                        <mxPoint x="50" y="75" as="targetPoint"/>
                    </mxGeometry>
                </mxCell>
                <mxCell id="335" value="" style="endArrow=none;html=1;exitX=1;exitY=0.5;exitDx=0;exitDy=0;" parent="330" source="331" edge="1">
                    <mxGeometry width="50" height="50" relative="1" as="geometry">
                        <mxPoint x="170" y="260" as="sourcePoint"/>
                        <mxPoint x="110" y="75" as="targetPoint"/>
                    </mxGeometry>
                </mxCell>
                <mxCell id="336" value="Pruebas unitarias" style="text;html=1;strokeColor=none;fillColor=none;align=center;verticalAlign=middle;whiteSpace=wrap;rounded=0;" parent="330" vertex="1">
                    <mxGeometry x="50" y="10" width="60" height="30" as="geometry"/>
                </mxCell>
                <mxCell id="337" value="4" style="text;html=1;strokeColor=none;fillColor=none;align=center;verticalAlign=middle;whiteSpace=wrap;rounded=0;" parent="330" vertex="1">
                    <mxGeometry x="50" y="100" width="60" height="30" as="geometry"/>
                </mxCell>
                <mxCell id="338" value="33" style="text;html=1;strokeColor=none;fillColor=none;align=center;verticalAlign=middle;whiteSpace=wrap;rounded=0;" parent="330" vertex="1">
                    <mxGeometry y="40" width="60" height="30" as="geometry"/>
                </mxCell>
                <mxCell id="339" value="33" style="text;html=1;strokeColor=none;fillColor=none;align=center;verticalAlign=middle;whiteSpace=wrap;rounded=0;" parent="330" vertex="1">
                    <mxGeometry y="90" width="60" height="30" as="geometry"/>
                </mxCell>
                <mxCell id="340" value="37" style="text;html=1;strokeColor=none;fillColor=none;align=center;verticalAlign=middle;whiteSpace=wrap;rounded=0;" parent="330" vertex="1">
                    <mxGeometry x="100" y="40" width="60" height="30" as="geometry"/>
                </mxCell>
                <mxCell id="341" value="37" style="text;html=1;strokeColor=none;fillColor=none;align=center;verticalAlign=middle;whiteSpace=wrap;rounded=0;" parent="330" vertex="1">
                    <mxGeometry x="100" y="90" width="60" height="30" as="geometry"/>
                </mxCell>
                <mxCell id="342" value="" style="group" parent="1" connectable="0" vertex="1">
                    <mxGeometry x="2960" y="610" width="160" height="150" as="geometry"/>
                </mxCell>
                <mxCell id="343" value="" style="ellipse;whiteSpace=wrap;html=1;aspect=fixed;" parent="342" vertex="1">
                    <mxGeometry x="10" width="150" height="150" as="geometry"/>
                </mxCell>
                <mxCell id="344" value="" style="endArrow=none;html=1;entryX=0.267;entryY=0.953;entryDx=0;entryDy=0;entryPerimeter=0;exitX=0.267;exitY=0.033;exitDx=0;exitDy=0;exitPerimeter=0;" parent="342" source="343" target="343" edge="1">
                    <mxGeometry width="50" height="50" relative="1" as="geometry">
                        <mxPoint x="50" y="10" as="sourcePoint"/>
                        <mxPoint x="50" y="150" as="targetPoint"/>
                    </mxGeometry>
                </mxCell>
                <mxCell id="345" value="" style="endArrow=none;html=1;entryX=0.673;entryY=0.033;entryDx=0;entryDy=0;entryPerimeter=0;exitX=0.68;exitY=0.973;exitDx=0;exitDy=0;exitPerimeter=0;" parent="342" source="343" target="343" edge="1">
                    <mxGeometry width="50" height="50" relative="1" as="geometry">
                        <mxPoint x="90" y="110" as="sourcePoint"/>
                        <mxPoint x="140" y="60" as="targetPoint"/>
                    </mxGeometry>
                </mxCell>
                <mxCell id="346" value="" style="endArrow=none;html=1;exitX=0;exitY=0.5;exitDx=0;exitDy=0;" parent="342" source="343" edge="1">
                    <mxGeometry width="50" height="50" relative="1" as="geometry">
                        <mxPoint x="60" y="100" as="sourcePoint"/>
                        <mxPoint x="50" y="75" as="targetPoint"/>
                    </mxGeometry>
                </mxCell>
                <mxCell id="347" value="" style="endArrow=none;html=1;exitX=1;exitY=0.5;exitDx=0;exitDy=0;" parent="342" source="343" edge="1">
                    <mxGeometry width="50" height="50" relative="1" as="geometry">
                        <mxPoint x="170" y="260" as="sourcePoint"/>
                        <mxPoint x="110" y="75" as="targetPoint"/>
                    </mxGeometry>
                </mxCell>
                <mxCell id="348" value="Pruebas de integraciÃ³n" style="text;html=1;strokeColor=none;fillColor=none;align=center;verticalAlign=middle;whiteSpace=wrap;rounded=0;" parent="342" vertex="1">
                    <mxGeometry x="50" y="10" width="60" height="30" as="geometry"/>
                </mxCell>
                <mxCell id="349" value="3" style="text;html=1;strokeColor=none;fillColor=none;align=center;verticalAlign=middle;whiteSpace=wrap;rounded=0;" parent="342" vertex="1">
                    <mxGeometry x="50" y="100" width="60" height="30" as="geometry"/>
                </mxCell>
                <mxCell id="350" value="37" style="text;html=1;strokeColor=none;fillColor=none;align=center;verticalAlign=middle;whiteSpace=wrap;rounded=0;" parent="342" vertex="1">
                    <mxGeometry y="40" width="60" height="30" as="geometry"/>
                </mxCell>
                <mxCell id="351" value="37" style="text;html=1;strokeColor=none;fillColor=none;align=center;verticalAlign=middle;whiteSpace=wrap;rounded=0;" parent="342" vertex="1">
                    <mxGeometry y="90" width="60" height="30" as="geometry"/>
                </mxCell>
                <mxCell id="352" value="40" style="text;html=1;strokeColor=none;fillColor=none;align=center;verticalAlign=middle;whiteSpace=wrap;rounded=0;" parent="342" vertex="1">
                    <mxGeometry x="100" y="40" width="60" height="30" as="geometry"/>
                </mxCell>
                <mxCell id="353" value="40" style="text;html=1;strokeColor=none;fillColor=none;align=center;verticalAlign=middle;whiteSpace=wrap;rounded=0;" parent="342" vertex="1">
                    <mxGeometry x="100" y="90" width="60" height="30" as="geometry"/>
                </mxCell>
                <mxCell id="354" value="" style="group" parent="1" connectable="0" vertex="1">
                    <mxGeometry x="2960" y="380" width="160" height="150" as="geometry"/>
                </mxCell>
                <mxCell id="355" value="" style="ellipse;whiteSpace=wrap;html=1;aspect=fixed;" parent="354" vertex="1">
                    <mxGeometry x="10" width="150" height="150" as="geometry"/>
                </mxCell>
                <mxCell id="356" value="" style="endArrow=none;html=1;entryX=0.267;entryY=0.953;entryDx=0;entryDy=0;entryPerimeter=0;exitX=0.267;exitY=0.033;exitDx=0;exitDy=0;exitPerimeter=0;" parent="354" source="355" target="355" edge="1">
                    <mxGeometry width="50" height="50" relative="1" as="geometry">
                        <mxPoint x="50" y="10" as="sourcePoint"/>
                        <mxPoint x="50" y="150" as="targetPoint"/>
                    </mxGeometry>
                </mxCell>
                <mxCell id="357" value="" style="endArrow=none;html=1;entryX=0.673;entryY=0.033;entryDx=0;entryDy=0;entryPerimeter=0;exitX=0.68;exitY=0.973;exitDx=0;exitDy=0;exitPerimeter=0;" parent="354" source="355" target="355" edge="1">
                    <mxGeometry width="50" height="50" relative="1" as="geometry">
                        <mxPoint x="90" y="110" as="sourcePoint"/>
                        <mxPoint x="140" y="60" as="targetPoint"/>
                    </mxGeometry>
                </mxCell>
                <mxCell id="358" value="" style="endArrow=none;html=1;exitX=0;exitY=0.5;exitDx=0;exitDy=0;" parent="354" source="355" edge="1">
                    <mxGeometry width="50" height="50" relative="1" as="geometry">
                        <mxPoint x="60" y="100" as="sourcePoint"/>
                        <mxPoint x="50" y="75" as="targetPoint"/>
                    </mxGeometry>
                </mxCell>
                <mxCell id="359" value="" style="endArrow=none;html=1;exitX=1;exitY=0.5;exitDx=0;exitDy=0;" parent="354" source="355" edge="1">
                    <mxGeometry width="50" height="50" relative="1" as="geometry">
                        <mxPoint x="170" y="260" as="sourcePoint"/>
                        <mxPoint x="110" y="75" as="targetPoint"/>
                    </mxGeometry>
                </mxCell>
                <mxCell id="360" value="Pruebas de calidad" style="text;html=1;strokeColor=none;fillColor=none;align=center;verticalAlign=middle;whiteSpace=wrap;rounded=0;" parent="354" vertex="1">
                    <mxGeometry x="50" y="10" width="60" height="30" as="geometry"/>
                </mxCell>
                <mxCell id="361" value="3" style="text;html=1;strokeColor=none;fillColor=none;align=center;verticalAlign=middle;whiteSpace=wrap;rounded=0;" parent="354" vertex="1">
                    <mxGeometry x="50" y="100" width="60" height="30" as="geometry"/>
                </mxCell>
                <mxCell id="362" value="37" style="text;html=1;strokeColor=none;fillColor=none;align=center;verticalAlign=middle;whiteSpace=wrap;rounded=0;" parent="354" vertex="1">
                    <mxGeometry y="40" width="60" height="30" as="geometry"/>
                </mxCell>
                <mxCell id="363" value="37" style="text;html=1;strokeColor=none;fillColor=none;align=center;verticalAlign=middle;whiteSpace=wrap;rounded=0;" parent="354" vertex="1">
                    <mxGeometry y="90" width="60" height="30" as="geometry"/>
                </mxCell>
                <mxCell id="365" value="40" style="text;html=1;strokeColor=none;fillColor=none;align=center;verticalAlign=middle;whiteSpace=wrap;rounded=0;" parent="354" vertex="1">
                    <mxGeometry x="100" y="90" width="60" height="30" as="geometry"/>
                </mxCell>
                <mxCell id="364" value="40" style="text;html=1;strokeColor=none;fillColor=none;align=center;verticalAlign=middle;whiteSpace=wrap;rounded=0;" parent="354" vertex="1">
                    <mxGeometry x="100" y="40" width="60" height="30" as="geometry"/>
                </mxCell>
                <mxCell id="366" style="edgeStyle=none;html=1;exitX=1;exitY=0;exitDx=0;exitDy=0;entryX=0;entryY=1;entryDx=0;entryDy=0;fontSize=10;fillColor=#e51400;strokeColor=#B20000;strokeWidth=8;" parent="1" source="211" target="331" edge="1">
                    <mxGeometry relative="1" as="geometry"/>
                </mxCell>
                <mxCell id="367" style="edgeStyle=none;html=1;exitX=1;exitY=1;exitDx=0;exitDy=0;entryX=0.25;entryY=1;entryDx=0;entryDy=0;fontSize=10;fillColor=#e51400;strokeColor=#B20000;strokeWidth=8;" parent="1" source="340" target="362" edge="1">
                    <mxGeometry relative="1" as="geometry"/>
                </mxCell>
                <mxCell id="368" style="edgeStyle=none;html=1;exitX=1;exitY=0.5;exitDx=0;exitDy=0;entryX=0;entryY=0.5;entryDx=0;entryDy=0;fontSize=10;fillColor=#e51400;strokeColor=#B20000;strokeWidth=8;" parent="1" source="331" target="343" edge="1">
                    <mxGeometry relative="1" as="geometry"/>
                </mxCell>
                <mxCell id="369" value="" style="group" parent="1" connectable="0" vertex="1">
                    <mxGeometry x="3190" y="500" width="160" height="150" as="geometry"/>
                </mxCell>
                <mxCell id="370" value="" style="ellipse;whiteSpace=wrap;html=1;aspect=fixed;" parent="369" vertex="1">
                    <mxGeometry x="10" width="150" height="150" as="geometry"/>
                </mxCell>
                <mxCell id="371" value="" style="endArrow=none;html=1;entryX=0.267;entryY=0.953;entryDx=0;entryDy=0;entryPerimeter=0;exitX=0.267;exitY=0.033;exitDx=0;exitDy=0;exitPerimeter=0;" parent="369" source="370" target="370" edge="1">
                    <mxGeometry width="50" height="50" relative="1" as="geometry">
                        <mxPoint x="50" y="10" as="sourcePoint"/>
                        <mxPoint x="50" y="150" as="targetPoint"/>
                    </mxGeometry>
                </mxCell>
                <mxCell id="372" value="" style="endArrow=none;html=1;entryX=0.673;entryY=0.033;entryDx=0;entryDy=0;entryPerimeter=0;exitX=0.68;exitY=0.973;exitDx=0;exitDy=0;exitPerimeter=0;" parent="369" source="370" target="370" edge="1">
                    <mxGeometry width="50" height="50" relative="1" as="geometry">
                        <mxPoint x="90" y="110" as="sourcePoint"/>
                        <mxPoint x="140" y="60" as="targetPoint"/>
                    </mxGeometry>
                </mxCell>
                <mxCell id="373" value="" style="endArrow=none;html=1;exitX=0;exitY=0.5;exitDx=0;exitDy=0;" parent="369" source="370" edge="1">
                    <mxGeometry width="50" height="50" relative="1" as="geometry">
                        <mxPoint x="60" y="100" as="sourcePoint"/>
                        <mxPoint x="50" y="75" as="targetPoint"/>
                    </mxGeometry>
                </mxCell>
                <mxCell id="374" value="" style="endArrow=none;html=1;exitX=1;exitY=0.5;exitDx=0;exitDy=0;" parent="369" source="370" edge="1">
                    <mxGeometry width="50" height="50" relative="1" as="geometry">
                        <mxPoint x="170" y="260" as="sourcePoint"/>
                        <mxPoint x="110" y="75" as="targetPoint"/>
                    </mxGeometry>
                </mxCell>
                <mxCell id="375" value="IntegraciÃ³n&lt;br&gt;pruebas" style="text;html=1;strokeColor=none;fillColor=none;align=center;verticalAlign=middle;whiteSpace=wrap;rounded=0;" parent="369" vertex="1">
                    <mxGeometry x="50" y="10" width="60" height="30" as="geometry"/>
                </mxCell>
                <mxCell id="376" value="2" style="text;html=1;strokeColor=none;fillColor=none;align=center;verticalAlign=middle;whiteSpace=wrap;rounded=0;" parent="369" vertex="1">
                    <mxGeometry x="50" y="100" width="60" height="30" as="geometry"/>
                </mxCell>
                <mxCell id="377" value="40" style="text;html=1;strokeColor=none;fillColor=none;align=center;verticalAlign=middle;whiteSpace=wrap;rounded=0;" parent="369" vertex="1">
                    <mxGeometry y="40" width="60" height="30" as="geometry"/>
                </mxCell>
                <mxCell id="378" value="40" style="text;html=1;strokeColor=none;fillColor=none;align=center;verticalAlign=middle;whiteSpace=wrap;rounded=0;" parent="369" vertex="1">
                    <mxGeometry y="90" width="60" height="30" as="geometry"/>
                </mxCell>
                <mxCell id="379" value="42" style="text;html=1;strokeColor=none;fillColor=none;align=center;verticalAlign=middle;whiteSpace=wrap;rounded=0;" parent="369" vertex="1">
                    <mxGeometry x="100" y="40" width="60" height="30" as="geometry"/>
                </mxCell>
                <mxCell id="380" value="42" style="text;html=1;strokeColor=none;fillColor=none;align=center;verticalAlign=middle;whiteSpace=wrap;rounded=0;" parent="369" vertex="1">
                    <mxGeometry x="100" y="90" width="60" height="30" as="geometry"/>
                </mxCell>
                <mxCell id="381" style="edgeStyle=none;html=1;exitX=1;exitY=1;exitDx=0;exitDy=0;entryX=0;entryY=0.5;entryDx=0;entryDy=0;fontSize=10;fillColor=#e51400;strokeColor=#B20000;strokeWidth=8;" parent="1" source="364" target="370" edge="1">
                    <mxGeometry relative="1" as="geometry"/>
                </mxCell>
                <mxCell id="382" style="edgeStyle=none;html=1;exitX=1;exitY=1;exitDx=0;exitDy=0;entryX=0;entryY=0.5;entryDx=0;entryDy=0;fontSize=10;fillColor=#e51400;strokeColor=#B20000;strokeWidth=8;" parent="1" source="352" target="370" edge="1">
                    <mxGeometry relative="1" as="geometry"/>
                </mxCell>
                <mxCell id="383" value="" style="group" parent="1" connectable="0" vertex="1">
                    <mxGeometry x="3400" y="380" width="160" height="150" as="geometry"/>
                </mxCell>
                <mxCell id="384" value="" style="ellipse;whiteSpace=wrap;html=1;aspect=fixed;" parent="383" vertex="1">
                    <mxGeometry x="10" width="150" height="150" as="geometry"/>
                </mxCell>
                <mxCell id="385" value="" style="endArrow=none;html=1;entryX=0.267;entryY=0.953;entryDx=0;entryDy=0;entryPerimeter=0;exitX=0.267;exitY=0.033;exitDx=0;exitDy=0;exitPerimeter=0;" parent="383" source="384" target="384" edge="1">
                    <mxGeometry width="50" height="50" relative="1" as="geometry">
                        <mxPoint x="50" y="10" as="sourcePoint"/>
                        <mxPoint x="50" y="150" as="targetPoint"/>
                    </mxGeometry>
                </mxCell>
                <mxCell id="386" value="" style="endArrow=none;html=1;entryX=0.673;entryY=0.033;entryDx=0;entryDy=0;entryPerimeter=0;exitX=0.68;exitY=0.973;exitDx=0;exitDy=0;exitPerimeter=0;" parent="383" source="384" target="384" edge="1">
                    <mxGeometry width="50" height="50" relative="1" as="geometry">
                        <mxPoint x="90" y="110" as="sourcePoint"/>
                        <mxPoint x="140" y="60" as="targetPoint"/>
                    </mxGeometry>
                </mxCell>
                <mxCell id="387" value="" style="endArrow=none;html=1;exitX=0;exitY=0.5;exitDx=0;exitDy=0;" parent="383" source="384" edge="1">
                    <mxGeometry width="50" height="50" relative="1" as="geometry">
                        <mxPoint x="60" y="100" as="sourcePoint"/>
                        <mxPoint x="50" y="75" as="targetPoint"/>
                    </mxGeometry>
                </mxCell>
                <mxCell id="388" value="" style="endArrow=none;html=1;exitX=1;exitY=0.5;exitDx=0;exitDy=0;" parent="383" source="384" edge="1">
                    <mxGeometry width="50" height="50" relative="1" as="geometry">
                        <mxPoint x="170" y="260" as="sourcePoint"/>
                        <mxPoint x="110" y="75" as="targetPoint"/>
                    </mxGeometry>
                </mxCell>
                <mxCell id="389" value="PresentaciÃ³n&lt;br&gt;final" style="text;html=1;strokeColor=none;fillColor=none;align=center;verticalAlign=middle;whiteSpace=wrap;rounded=0;" parent="383" vertex="1">
                    <mxGeometry x="50" y="10" width="60" height="30" as="geometry"/>
                </mxCell>
                <mxCell id="390" value="1" style="text;html=1;strokeColor=none;fillColor=none;align=center;verticalAlign=middle;whiteSpace=wrap;rounded=0;" parent="383" vertex="1">
                    <mxGeometry x="50" y="100" width="60" height="30" as="geometry"/>
                </mxCell>
                <mxCell id="391" value="42" style="text;html=1;strokeColor=none;fillColor=none;align=center;verticalAlign=middle;whiteSpace=wrap;rounded=0;" parent="383" vertex="1">
                    <mxGeometry y="40" width="60" height="30" as="geometry"/>
                </mxCell>
                <mxCell id="392" value="44" style="text;html=1;strokeColor=none;fillColor=none;align=center;verticalAlign=middle;whiteSpace=wrap;rounded=0;" parent="383" vertex="1">
                    <mxGeometry y="90" width="60" height="30" as="geometry"/>
                </mxCell>
                <mxCell id="393" value="42" style="text;html=1;strokeColor=none;fillColor=none;align=center;verticalAlign=middle;whiteSpace=wrap;rounded=0;" parent="383" vertex="1">
                    <mxGeometry x="100" y="40" width="60" height="30" as="geometry"/>
                </mxCell>
                <mxCell id="394" value="45" style="text;html=1;strokeColor=none;fillColor=none;align=center;verticalAlign=middle;whiteSpace=wrap;rounded=0;" parent="383" vertex="1">
                    <mxGeometry x="100" y="90" width="60" height="30" as="geometry"/>
                </mxCell>
                <mxCell id="395" value="" style="group" parent="1" connectable="0" vertex="1">
                    <mxGeometry x="3400" y="650" width="160" height="150" as="geometry"/>
                </mxCell>
                <mxCell id="396" value="" style="ellipse;whiteSpace=wrap;html=1;aspect=fixed;" parent="395" vertex="1">
                    <mxGeometry x="10" width="150" height="150" as="geometry"/>
                </mxCell>
                <mxCell id="397" value="" style="endArrow=none;html=1;entryX=0.267;entryY=0.953;entryDx=0;entryDy=0;entryPerimeter=0;exitX=0.267;exitY=0.033;exitDx=0;exitDy=0;exitPerimeter=0;" parent="395" source="396" target="396" edge="1">
                    <mxGeometry width="50" height="50" relative="1" as="geometry">
                        <mxPoint x="50" y="10" as="sourcePoint"/>
                        <mxPoint x="50" y="150" as="targetPoint"/>
                    </mxGeometry>
                </mxCell>
                <mxCell id="398" value="" style="endArrow=none;html=1;entryX=0.673;entryY=0.033;entryDx=0;entryDy=0;entryPerimeter=0;exitX=0.68;exitY=0.973;exitDx=0;exitDy=0;exitPerimeter=0;" parent="395" source="396" target="396" edge="1">
                    <mxGeometry width="50" height="50" relative="1" as="geometry">
                        <mxPoint x="90" y="110" as="sourcePoint"/>
                        <mxPoint x="140" y="60" as="targetPoint"/>
                    </mxGeometry>
                </mxCell>
                <mxCell id="399" value="" style="endArrow=none;html=1;exitX=0;exitY=0.5;exitDx=0;exitDy=0;" parent="395" source="396" edge="1">
                    <mxGeometry width="50" height="50" relative="1" as="geometry">
                        <mxPoint x="60" y="100" as="sourcePoint"/>
                        <mxPoint x="50" y="75" as="targetPoint"/>
                    </mxGeometry>
                </mxCell>
                <mxCell id="400" value="" style="endArrow=none;html=1;exitX=1;exitY=0.5;exitDx=0;exitDy=0;" parent="395" source="396" edge="1">
                    <mxGeometry width="50" height="50" relative="1" as="geometry">
                        <mxPoint x="170" y="260" as="sourcePoint"/>
                        <mxPoint x="110" y="75" as="targetPoint"/>
                    </mxGeometry>
                </mxCell>
                <mxCell id="401" value="DocumentaciÃ³n&lt;br&gt;final" style="text;html=1;strokeColor=none;fillColor=none;align=center;verticalAlign=middle;whiteSpace=wrap;rounded=0;" parent="395" vertex="1">
                    <mxGeometry x="50" y="10" width="60" height="30" as="geometry"/>
                </mxCell>
                <mxCell id="402" value="3" style="text;html=1;strokeColor=none;fillColor=none;align=center;verticalAlign=middle;whiteSpace=wrap;rounded=0;" parent="395" vertex="1">
                    <mxGeometry x="50" y="100" width="60" height="30" as="geometry"/>
                </mxCell>
                <mxCell id="403" value="42" style="text;html=1;strokeColor=none;fillColor=none;align=center;verticalAlign=middle;whiteSpace=wrap;rounded=0;" parent="395" vertex="1">
                    <mxGeometry y="40" width="60" height="30" as="geometry"/>
                </mxCell>
                <mxCell id="404" value="42" style="text;html=1;strokeColor=none;fillColor=none;align=center;verticalAlign=middle;whiteSpace=wrap;rounded=0;" parent="395" vertex="1">
                    <mxGeometry y="90" width="60" height="30" as="geometry"/>
                </mxCell>
                <mxCell id="405" value="45" style="text;html=1;strokeColor=none;fillColor=none;align=center;verticalAlign=middle;whiteSpace=wrap;rounded=0;" parent="395" vertex="1">
                    <mxGeometry x="100" y="40" width="60" height="30" as="geometry"/>
                </mxCell>
                <mxCell id="406" value="45" style="text;html=1;strokeColor=none;fillColor=none;align=center;verticalAlign=middle;whiteSpace=wrap;rounded=0;" parent="395" vertex="1">
                    <mxGeometry x="100" y="90" width="60" height="30" as="geometry"/>
                </mxCell>
                <mxCell id="407" value="" style="group" parent="1" connectable="0" vertex="1">
                    <mxGeometry x="3650" y="480" width="160" height="150" as="geometry"/>
                </mxCell>
                <mxCell id="408" value="" style="ellipse;whiteSpace=wrap;html=1;aspect=fixed;" parent="407" vertex="1">
                    <mxGeometry x="10" width="150" height="150" as="geometry"/>
                </mxCell>
                <mxCell id="409" value="" style="endArrow=none;html=1;entryX=0.267;entryY=0.953;entryDx=0;entryDy=0;entryPerimeter=0;exitX=0.267;exitY=0.033;exitDx=0;exitDy=0;exitPerimeter=0;" parent="407" source="408" target="408" edge="1">
                    <mxGeometry width="50" height="50" relative="1" as="geometry">
                        <mxPoint x="50" y="10" as="sourcePoint"/>
                        <mxPoint x="50" y="150" as="targetPoint"/>
                    </mxGeometry>
                </mxCell>
                <mxCell id="410" value="" style="endArrow=none;html=1;entryX=0.673;entryY=0.033;entryDx=0;entryDy=0;entryPerimeter=0;exitX=0.68;exitY=0.973;exitDx=0;exitDy=0;exitPerimeter=0;" parent="407" source="408" target="408" edge="1">
                    <mxGeometry width="50" height="50" relative="1" as="geometry">
                        <mxPoint x="90" y="110" as="sourcePoint"/>
                        <mxPoint x="140" y="60" as="targetPoint"/>
                    </mxGeometry>
                </mxCell>
                <mxCell id="411" value="" style="endArrow=none;html=1;exitX=0;exitY=0.5;exitDx=0;exitDy=0;" parent="407" source="408" edge="1">
                    <mxGeometry width="50" height="50" relative="1" as="geometry">
                        <mxPoint x="60" y="100" as="sourcePoint"/>
                        <mxPoint x="50" y="75" as="targetPoint"/>
                    </mxGeometry>
                </mxCell>
                <mxCell id="412" value="" style="endArrow=none;html=1;exitX=1;exitY=0.5;exitDx=0;exitDy=0;" parent="407" source="408" edge="1">
                    <mxGeometry width="50" height="50" relative="1" as="geometry">
                        <mxPoint x="170" y="260" as="sourcePoint"/>
                        <mxPoint x="110" y="75" as="targetPoint"/>
                    </mxGeometry>
                </mxCell>
                <mxCell id="413" value="Final" style="text;html=1;strokeColor=none;fillColor=none;align=center;verticalAlign=middle;whiteSpace=wrap;rounded=0;" parent="407" vertex="1">
                    <mxGeometry x="50" y="10" width="60" height="30" as="geometry"/>
                </mxCell>
                <mxCell id="414" value="1" style="text;html=1;strokeColor=none;fillColor=none;align=center;verticalAlign=middle;whiteSpace=wrap;rounded=0;" parent="407" vertex="1">
                    <mxGeometry x="50" y="100" width="60" height="30" as="geometry"/>
                </mxCell>
                <mxCell id="415" value="45" style="text;html=1;strokeColor=none;fillColor=none;align=center;verticalAlign=middle;whiteSpace=wrap;rounded=0;" parent="407" vertex="1">
                    <mxGeometry y="40" width="60" height="30" as="geometry"/>
                </mxCell>
                <mxCell id="416" value="45" style="text;html=1;strokeColor=none;fillColor=none;align=center;verticalAlign=middle;whiteSpace=wrap;rounded=0;" parent="407" vertex="1">
                    <mxGeometry y="90" width="60" height="30" as="geometry"/>
                </mxCell>
                <mxCell id="417" value="46" style="text;html=1;strokeColor=none;fillColor=none;align=center;verticalAlign=middle;whiteSpace=wrap;rounded=0;" parent="407" vertex="1">
                    <mxGeometry x="100" y="40" width="60" height="30" as="geometry"/>
                </mxCell>
                <mxCell id="418" value="46" style="text;html=1;strokeColor=none;fillColor=none;align=center;verticalAlign=middle;whiteSpace=wrap;rounded=0;" parent="407" vertex="1">
                    <mxGeometry x="100" y="90" width="60" height="30" as="geometry"/>
                </mxCell>
                <mxCell id="419" style="edgeStyle=none;html=1;exitX=1;exitY=0.5;exitDx=0;exitDy=0;entryX=0;entryY=0.5;entryDx=0;entryDy=0;fontSize=10;strokeWidth=6;" parent="1" source="370" target="384" edge="1">
                    <mxGeometry relative="1" as="geometry"/>
                </mxCell>
                <mxCell id="420" style="edgeStyle=none;html=1;exitX=1;exitY=0.5;exitDx=0;exitDy=0;entryX=0;entryY=0.5;entryDx=0;entryDy=0;fontSize=10;fillColor=#e51400;strokeColor=#B20000;strokeWidth=8;" parent="1" source="370" target="396" edge="1">
                    <mxGeometry relative="1" as="geometry"/>
                </mxCell>
                <mxCell id="421" style="edgeStyle=none;html=1;exitX=1;exitY=1;exitDx=0;exitDy=0;entryX=0.143;entryY=1.148;entryDx=0;entryDy=0;entryPerimeter=0;fontSize=10;strokeWidth=6;" parent="1" source="393" target="415" edge="1">
                    <mxGeometry relative="1" as="geometry"/>
                </mxCell>
                <mxCell id="422" style="edgeStyle=none;html=1;exitX=1;exitY=1;exitDx=0;exitDy=0;entryX=0.25;entryY=1;entryDx=0;entryDy=0;fontSize=10;fillColor=#e51400;strokeColor=#B20000;strokeWidth=8;" parent="1" source="405" target="416" edge="1">
                    <mxGeometry relative="1" as="geometry"/>
                </mxCell>
            </root>
        </mxGraphModel>
    </diagram>
</mxfile>